<?xml version="1.0" encoding="UTF-8"?>
<svg id="Bloosm" xmlns="http://www.w3.org/2000/svg" viewBox="0 0 585.92 704.65">
  <defs>
    <style>
      .cls-1 {
        fill: #d6cfc9;
      }

      .cls-2 {
        fill: #eae9e8;
      }
    </style>
  </defs>
  <g>
    <path class="cls-2" d="M513.2,309.74c1.19.65,2.77.75,3.51-.6.27-.5.43-1,.57-1.55.15-.62.71-.03,2.15-.27,1.61-.27,1.87-2.1,1.55-3.44-.48-1.99-1.72-3.63-3.41-4.76-.94-.63-1.89-1.07-2.95-1.57.77.05,1.39.26,2.1.36,2.57.36,5.18-.1,7.07-1.97,1.01-1,1.52-2.35.43-3.48-.36-.37-.78-.64-1.24-.88-.68-.35.06-.87.21-2.07.14-1.09-.43-2.01-1.44-2.35s-2.02-.43-3.08-.26c-2.62.42-4.27,1.83-6.05,3.7.24-.79.69-1.32.94-2.02.35-.97.63-1.95.7-3,.11-1.57-.25-3.14-1.14-4.4-.62-.88-1.65-1.22-2.61-.78-.57.26-1.03.62-1.48,1.06-.42.41-.6-.5-1.88-1.07-.63-.27-1.37-.25-1.93.15-.61.43-.99,1.06-1.28,1.74-.59,1.39-.67,2.89-.38,4.37.18.9.43,1.71.83,2.53.25.51.55.95.72,1.55-.96-1.09-1.9-1.99-3.11-2.72-1.83-1.11-4.15-1.56-6.19-.79-.9.34-1.43,1.18-1.35,2.15.05.56.24,1.08.47,1.59.33.74-.79.56-1.63,1.7-.63.85-.55,1.89.09,2.72,1.86,2.39,4.98,2.94,7.86,2.49.6-.09,1.13-.26,1.75-.31l-2.4,1.25c-.56.29-1.04.68-1.51,1.1-1.24,1.1-2.11,2.52-2.43,4.15-.25,1.27.02,2.89,1.52,3.24,1.3.3,2.11-.34,2.24.3s.33,1.2.68,1.72c1,1.46,2.85.85,4.05,0,2.84-2,3.47-4.96,3.67-8.27.14,1.21.19,2.33.5,3.48.61,2.24,1.82,4.07,3.87,5.2Z"/>
    <path class="cls-2" d="M513.2,309.74c-2.05-1.12-3.27-2.96-3.87-5.2-.31-1.15-.37-2.27-.5-3.48-.2,3.3-.83,6.27-3.67,8.27-1.21.85-3.05,1.46-4.05,0-.36-.52-.56-1.1-.68-1.72s-.94,0-2.24-.3c-1.49-.35-1.76-1.97-1.52-3.24.32-1.63,1.2-3.05,2.43-4.15.48-.43.95-.81,1.51-1.1l2.4-1.25c-.62.06-1.16.22-1.75.31-2.88.46-6-.1-7.86-2.49-.65-.83-.72-1.87-.09-2.72.85-1.14,1.96-.96,1.63-1.7-.23-.51-.42-1.03-.47-1.59-.08-.98.45-1.81,1.35-2.15,2.04-.78,4.37-.33,6.19.79,1.21.74,2.15,1.63,3.11,2.72-.17-.59-.47-1.04-.72-1.55-.4-.82-.65-1.63-.83-2.53-.29-1.48-.21-2.98.38-4.37.29-.69.66-1.31,1.28-1.74.57-.4,1.31-.43,1.93-.15,1.28.56,1.46,1.47,1.88,1.07.45-.43.91-.8,1.48-1.06.96-.44,1.99-.1,2.61.78.89,1.26,1.24,2.83,1.14,4.4-.07,1.05-.35,2.03-.7,3-.25.7-.7,1.23-.94,2.02,1.78-1.87,3.43-3.27,6.05-3.7,1.06-.17,2.08-.08,3.08.26s1.58,1.26,1.44,2.35c-.16,1.2-.89,1.72-.21,2.07.46.24.89.51,1.24.88,1.09,1.13.58,2.48-.43,3.48-1.89,1.87-4.5,2.33-7.07,1.97-.7-.1-1.33-.31-2.1-.36,1.05.5,2,.94,2.95,1.57,1.69,1.13,2.93,2.77,3.41,4.76.32,1.34.06,3.18-1.55,3.44-1.44.24-2-.35-2.15.27-.14.55-.29,1.06-.57,1.55-.74,1.35-2.33,1.25-3.51.6ZM510.44,298.87c1.13,1.54,2.32,2.89,3.76,4.11-.24-.92-.68-1.69-1.13-2.47-.48-.86-.96-1.66-1.52-2.46.71-.79,1.02-1.75.98-2.8,1.7-.55,3.46-1.29,4.98-2.25-.68-.05-1.28.08-1.92.15-1.17.21-2.29.45-3.47.78-.53-1.05-1.44-1.75-2.57-2.01-.1-1.79-.23-3.55-.71-5.33-.51,1.77-.64,3.5-.73,5.33-1.1.28-2.05.93-2.58,2-1.61-.45-3.18-.77-4.8-.95-.2,0-.36-.07-.58.02,1.54.97,3.24,1.65,5.02,2.28-.08,1.02.24,1.97.94,2.75l-.8,1.27c-.71,1.17-1.4,2.32-1.86,3.63.34-.15.54-.4.8-.64,1.1-1.04,2.04-2.2,3-3.42,1.04.47,2.12.46,3.19,0ZM512.59,290.63s-.02-.04-.04-.04-.04.02-.04.04.02.04.04.04.04-.02.04-.04ZM514.58,297.51s-.02-.04-.04-.04-.04.02-.04.04.02.04.04.04.04-.02.04-.04Z"/>
    <path class="cls-1" d="M510.44,298.87c-1.07.47-2.15.47-3.19,0-.95,1.22-1.89,2.37-3,3.42-.25.24-.46.49-.8.64.46-1.31,1.15-2.46,1.86-3.63l.8-1.27c-.69-.78-1.02-1.73-.94-2.75-1.77-.63-3.47-1.3-5.02-2.28.21-.09.38-.02.58-.02,1.63.18,3.19.5,4.8.95.53-1.07,1.48-1.72,2.58-2,.09-1.82.22-3.56.73-5.33.48,1.78.61,3.54.71,5.33,1.13.26,2.05.96,2.57,2.01,1.18-.34,2.3-.58,3.47-.78.64-.08,1.24-.2,1.92-.15-1.52.95-3.29,1.7-4.98,2.25.04,1.05-.27,2.01-.98,2.8.56.8,1.04,1.61,1.52,2.46.45.79.89,1.55,1.13,2.47-1.44-1.22-2.63-2.57-3.76-4.11ZM511.31,295.72c.08-1.27-.78-2.32-1.9-2.59s-2.34.31-2.84,1.41c-.65,1.42.17,3.03,1.63,3.41s3-.61,3.1-2.23Z"/>
    <circle class="cls-2" cx="512.55" cy="290.63" r=".04"/>
    <circle class="cls-2" cx="514.54" cy="297.51" r=".04"/>
    <path class="cls-2" d="M511.31,295.72c-.1,1.62-1.64,2.61-3.1,2.23s-2.27-1.99-1.63-3.41c.5-1.1,1.68-1.68,2.84-1.41s1.97,1.32,1.9,2.59Z"/>
  </g>
  <g>
    <path class="cls-2" d="M445.67,359.87c1.19.65,2.77.75,3.51-.6.27-.5.43-1,.57-1.55.15-.62.71-.03,2.15-.27,1.61-.27,1.87-2.1,1.55-3.44-.48-1.99-1.72-3.63-3.41-4.76-.94-.63-1.89-1.07-2.95-1.57.77.05,1.39.26,2.1.36,2.57.36,5.18-.1,7.07-1.97,1.01-1,1.52-2.35.43-3.48-.36-.37-.78-.64-1.24-.88-.68-.35.06-.87.21-2.07.14-1.09-.43-2.01-1.44-2.35s-2.02-.43-3.08-.26c-2.62.42-4.27,1.83-6.05,3.7.24-.79.69-1.32.94-2.02.35-.97.63-1.95.7-3,.11-1.57-.25-3.14-1.14-4.4-.62-.88-1.65-1.22-2.61-.78-.57.26-1.03.62-1.48,1.06-.42.41-.6-.5-1.88-1.07-.63-.27-1.37-.25-1.93.15-.61.43-.99,1.06-1.28,1.74-.59,1.39-.67,2.89-.38,4.37.18.9.43,1.71.83,2.53.25.51.55.95.72,1.55-.96-1.09-1.9-1.99-3.11-2.72-1.83-1.11-4.15-1.56-6.19-.79-.9.34-1.43,1.18-1.35,2.15.05.56.24,1.08.47,1.59.33.74-.79.56-1.63,1.7-.63.85-.55,1.89.09,2.72,1.86,2.39,4.98,2.94,7.86,2.49.6-.09,1.13-.26,1.75-.31l-2.4,1.25c-.56.29-1.04.68-1.51,1.1-1.24,1.1-2.11,2.52-2.43,4.15-.25,1.27.02,2.89,1.52,3.24,1.3.3,2.11-.34,2.24.3s.33,1.2.68,1.72c1,1.46,2.85.85,4.05,0,2.84-2,3.47-4.96,3.67-8.27.14,1.21.19,2.33.5,3.48.61,2.24,1.82,4.07,3.87,5.2Z"/>
    <path class="cls-2" d="M445.67,359.87c-2.05-1.12-3.27-2.96-3.87-5.2-.31-1.15-.37-2.27-.5-3.48-.2,3.3-.83,6.27-3.67,8.27-1.21.85-3.05,1.46-4.05,0-.36-.52-.56-1.1-.68-1.72s-.94,0-2.24-.3c-1.49-.35-1.76-1.97-1.52-3.24.32-1.63,1.2-3.05,2.43-4.15.48-.43.95-.81,1.51-1.1l2.4-1.25c-.62.06-1.16.22-1.75.31-2.88.46-6-.1-7.86-2.49-.65-.83-.72-1.87-.09-2.72.85-1.14,1.96-.96,1.63-1.7-.23-.51-.42-1.03-.47-1.59-.08-.98.45-1.81,1.35-2.15,2.04-.78,4.37-.33,6.19.79,1.21.74,2.15,1.63,3.11,2.72-.17-.59-.47-1.04-.72-1.55-.4-.82-.65-1.63-.83-2.53-.29-1.48-.21-2.98.38-4.37.29-.69.66-1.31,1.28-1.74.57-.4,1.31-.43,1.93-.15,1.28.56,1.46,1.47,1.88,1.07.45-.43.91-.8,1.48-1.06.96-.44,1.99-.1,2.61.78.89,1.26,1.24,2.83,1.14,4.4-.07,1.05-.35,2.03-.7,3-.25.7-.7,1.23-.94,2.02,1.78-1.87,3.43-3.27,6.05-3.7,1.06-.17,2.08-.08,3.08.26s1.58,1.26,1.44,2.35c-.16,1.2-.89,1.72-.21,2.07.46.24.89.51,1.24.88,1.09,1.13.58,2.48-.43,3.48-1.89,1.87-4.5,2.33-7.07,1.97-.7-.1-1.33-.31-2.1-.36,1.05.5,2,.94,2.95,1.57,1.69,1.13,2.93,2.77,3.41,4.76.32,1.34.06,3.18-1.55,3.44-1.44.24-2-.35-2.15.27-.14.55-.29,1.06-.57,1.55-.74,1.35-2.33,1.25-3.51.6ZM442.9,349.01c1.13,1.54,2.32,2.89,3.76,4.11-.24-.92-.68-1.69-1.13-2.47-.48-.86-.96-1.66-1.52-2.46.71-.79,1.02-1.75.98-2.8,1.7-.55,3.46-1.29,4.98-2.25-.68-.05-1.28.08-1.92.15-1.17.21-2.29.45-3.47.78-.53-1.05-1.44-1.75-2.57-2.01-.1-1.79-.23-3.55-.71-5.33-.51,1.77-.64,3.5-.73,5.33-1.1.28-2.05.93-2.58,2-1.61-.45-3.18-.77-4.8-.95-.2,0-.36-.07-.58.02,1.54.97,3.24,1.65,5.02,2.28-.08,1.02.24,1.97.94,2.75l-.8,1.27c-.71,1.17-1.4,2.32-1.86,3.63.34-.15.54-.4.8-.64,1.1-1.04,2.04-2.2,3-3.42,1.04.47,2.12.46,3.19,0ZM445.05,340.77s-.02-.04-.04-.04-.04.02-.04.04.02.04.04.04.04-.02.04-.04ZM447.05,347.64s-.02-.04-.04-.04-.04.02-.04.04.02.04.04.04.04-.02.04-.04Z"/>
    <path class="cls-1" d="M442.9,349.01c-1.07.47-2.15.47-3.19,0-.95,1.22-1.89,2.37-3,3.42-.25.24-.46.49-.8.64.46-1.31,1.15-2.46,1.86-3.63l.8-1.27c-.69-.78-1.02-1.73-.94-2.75-1.77-.63-3.47-1.3-5.02-2.28.21-.09.38-.02.58-.02,1.63.18,3.19.5,4.8.95.53-1.07,1.48-1.72,2.58-2,.09-1.82.22-3.56.73-5.33.48,1.78.61,3.54.71,5.33,1.13.26,2.05.96,2.57,2.01,1.18-.34,2.3-.58,3.47-.78.64-.08,1.24-.2,1.92-.15-1.52.95-3.29,1.7-4.98,2.25.04,1.05-.27,2.01-.98,2.8.56.8,1.04,1.61,1.52,2.46.45.79.89,1.55,1.13,2.47-1.44-1.22-2.63-2.57-3.76-4.11ZM443.77,345.86c.08-1.27-.78-2.32-1.9-2.59s-2.34.31-2.84,1.41c-.65,1.42.17,3.03,1.63,3.41s3-.61,3.1-2.23Z"/>
    <circle class="cls-2" cx="445.01" cy="340.77" r=".04"/>
    <circle class="cls-2" cx="447" cy="347.64" r=".04"/>
    <path class="cls-2" d="M443.77,345.86c-.1,1.62-1.64,2.61-3.1,2.23s-2.27-1.99-1.63-3.41c.5-1.1,1.68-1.68,2.84-1.41s1.97,1.32,1.9,2.59Z"/>
  </g>
  <g>
    <path class="cls-2" d="M158.08,351.53c1.19.65,2.77.75,3.51-.6.27-.5.43-1,.57-1.55.15-.62.71-.03,2.15-.27,1.61-.27,1.87-2.1,1.55-3.44-.48-1.99-1.72-3.63-3.41-4.76-.94-.63-1.89-1.07-2.95-1.57.77.05,1.39.26,2.1.36,2.57.36,5.18-.1,7.07-1.97,1.01-1,1.52-2.35.43-3.48-.36-.37-.78-.64-1.24-.88-.68-.35.06-.87.21-2.07.14-1.09-.43-2.01-1.44-2.35s-2.02-.43-3.08-.26c-2.62.42-4.27,1.83-6.05,3.7.24-.79.69-1.32.94-2.02.35-.97.63-1.95.7-3,.11-1.57-.25-3.14-1.14-4.4-.62-.88-1.65-1.22-2.61-.78-.57.26-1.03.62-1.48,1.06-.42.41-.6-.5-1.88-1.07-.63-.27-1.37-.25-1.93.15-.61.43-.99,1.06-1.28,1.74-.59,1.39-.67,2.89-.38,4.37.18.9.43,1.71.83,2.53.25.51.55.95.72,1.55-.96-1.09-1.9-1.99-3.11-2.72-1.83-1.11-4.15-1.56-6.19-.79-.9.34-1.43,1.18-1.35,2.15.05.56.24,1.08.47,1.59.33.74-.79.56-1.63,1.7-.63.85-.55,1.89.09,2.72,1.86,2.39,4.98,2.94,7.86,2.49.6-.09,1.13-.26,1.75-.31l-2.4,1.25c-.56.29-1.04.68-1.51,1.1-1.24,1.1-2.11,2.52-2.43,4.15-.25,1.27.02,2.89,1.52,3.24,1.3.3,2.11-.34,2.24.3s.33,1.2.68,1.72c1,1.46,2.85.85,4.05,0,2.84-2,3.47-4.96,3.67-8.27.14,1.21.19,2.33.5,3.48.61,2.24,1.82,4.07,3.87,5.2Z"/>
    <path class="cls-2" d="M158.08,351.53c-2.05-1.12-3.27-2.96-3.87-5.2-.31-1.15-.37-2.27-.5-3.48-.2,3.3-.83,6.27-3.67,8.27-1.21.85-3.05,1.46-4.05,0-.36-.52-.56-1.1-.68-1.72s-.94,0-2.24-.3c-1.49-.35-1.76-1.97-1.52-3.24.32-1.63,1.2-3.05,2.43-4.15.48-.43.95-.81,1.51-1.1l2.4-1.25c-.62.06-1.16.22-1.75.31-2.88.46-6-.1-7.86-2.49-.65-.83-.72-1.87-.09-2.72.85-1.14,1.96-.96,1.63-1.7-.23-.51-.42-1.03-.47-1.59-.08-.98.45-1.81,1.35-2.15,2.04-.78,4.37-.33,6.19.79,1.21.74,2.15,1.63,3.11,2.72-.17-.59-.47-1.04-.72-1.55-.4-.82-.65-1.63-.83-2.53-.29-1.48-.21-2.98.38-4.37.29-.69.66-1.31,1.28-1.74.57-.4,1.31-.43,1.93-.15,1.28.56,1.46,1.47,1.88,1.07.45-.43.91-.8,1.48-1.06.96-.44,1.99-.1,2.61.78.89,1.26,1.24,2.83,1.14,4.4-.07,1.05-.35,2.03-.7,3-.25.7-.7,1.23-.94,2.02,1.78-1.87,3.43-3.27,6.05-3.7,1.06-.17,2.08-.08,3.08.26s1.58,1.26,1.44,2.35c-.16,1.2-.89,1.72-.21,2.07.46.24.89.51,1.24.88,1.09,1.13.58,2.48-.43,3.48-1.89,1.87-4.5,2.33-7.07,1.97-.7-.1-1.33-.31-2.1-.36,1.05.5,2,.94,2.95,1.57,1.69,1.13,2.93,2.77,3.41,4.76.32,1.34.06,3.18-1.55,3.44-1.44.24-2-.35-2.15.27-.14.55-.29,1.06-.57,1.55-.74,1.35-2.33,1.25-3.51.6ZM155.32,340.66c1.13,1.54,2.32,2.89,3.76,4.11-.24-.92-.68-1.69-1.13-2.47-.48-.86-.96-1.66-1.52-2.46.71-.79,1.02-1.75.98-2.8,1.7-.55,3.46-1.29,4.98-2.25-.68-.05-1.28.08-1.92.15-1.17.21-2.29.45-3.47.78-.53-1.05-1.44-1.75-2.57-2.01-.1-1.79-.23-3.55-.71-5.33-.51,1.77-.64,3.5-.73,5.33-1.1.28-2.05.93-2.58,2-1.61-.45-3.18-.77-4.8-.95-.2,0-.36-.07-.58.02,1.54.97,3.24,1.65,5.02,2.28-.08,1.02.24,1.97.94,2.75l-.8,1.27c-.71,1.17-1.4,2.32-1.86,3.63.34-.15.54-.4.8-.64,1.1-1.04,2.04-2.2,3-3.42,1.04.47,2.12.46,3.19,0ZM157.47,332.42s-.02-.04-.04-.04-.04.02-.04.04.02.04.04.04.04-.02.04-.04ZM159.46,339.29s-.02-.04-.04-.04-.04.02-.04.04.02.04.04.04.04-.02.04-.04Z"/>
    <path class="cls-1" d="M155.32,340.66c-1.07.47-2.15.47-3.19,0-.95,1.22-1.89,2.37-3,3.42-.25.24-.46.49-.8.64.46-1.31,1.15-2.46,1.86-3.63l.8-1.27c-.69-.78-1.02-1.73-.94-2.75-1.77-.63-3.47-1.3-5.02-2.28.21-.09.38-.02.58-.02,1.63.18,3.19.5,4.8.95.53-1.07,1.48-1.72,2.58-2,.09-1.82.22-3.56.73-5.33.48,1.78.61,3.54.71,5.33,1.13.26,2.05.96,2.57,2.01,1.18-.34,2.3-.58,3.47-.78.64-.08,1.24-.2,1.92-.15-1.52.95-3.29,1.7-4.98,2.25.04,1.05-.27,2.01-.98,2.8.56.8,1.04,1.61,1.52,2.46.45.79.89,1.55,1.13,2.47-1.44-1.22-2.63-2.57-3.76-4.11ZM156.18,337.51c.08-1.27-.78-2.32-1.9-2.59s-2.34.31-2.84,1.41c-.65,1.42.17,3.03,1.63,3.41s3-.61,3.1-2.23Z"/>
    <circle class="cls-2" cx="157.42" cy="332.42" r=".04"/>
    <circle class="cls-2" cx="159.42" cy="339.29" r=".04"/>
    <path class="cls-2" d="M156.18,337.51c-.1,1.62-1.64,2.61-3.1,2.23s-2.27-1.99-1.63-3.41c.5-1.1,1.68-1.68,2.84-1.41s1.97,1.32,1.9,2.59Z"/>
  </g>
  <g>
    <path class="cls-2" d="M83.73,311.99c1.19.65,2.77.75,3.51-.6.27-.5.43-1,.57-1.55.15-.62.71-.03,2.15-.27,1.61-.27,1.87-2.1,1.55-3.44-.48-1.99-1.72-3.63-3.41-4.76-.94-.63-1.89-1.07-2.95-1.57.77.05,1.39.26,2.1.36,2.57.36,5.18-.1,7.07-1.97,1.01-1,1.52-2.35.43-3.48-.36-.37-.78-.64-1.24-.88-.68-.35.06-.87.21-2.07.14-1.09-.43-2.01-1.44-2.35s-2.02-.43-3.08-.26c-2.62.42-4.27,1.83-6.05,3.7.24-.79.69-1.32.94-2.02.35-.97.63-1.95.7-3,.11-1.57-.25-3.14-1.14-4.4-.62-.88-1.65-1.22-2.61-.78-.57.26-1.03.62-1.48,1.06-.42.41-.6-.5-1.88-1.07-.63-.27-1.37-.25-1.93.15-.61.43-.99,1.06-1.28,1.74-.59,1.39-.67,2.89-.38,4.37.18.9.43,1.71.83,2.53.25.51.55.95.72,1.55-.96-1.09-1.9-1.99-3.11-2.72-1.83-1.11-4.15-1.56-6.19-.79-.9.34-1.43,1.18-1.35,2.15.05.56.24,1.08.47,1.59.33.74-.79.56-1.63,1.7-.63.85-.55,1.89.09,2.72,1.86,2.39,4.98,2.94,7.86,2.49.6-.09,1.13-.26,1.75-.31l-2.4,1.25c-.56.29-1.04.68-1.51,1.1-1.24,1.1-2.11,2.52-2.43,4.15-.25,1.27.02,2.89,1.52,3.24,1.3.3,2.11-.34,2.24.3s.33,1.2.68,1.72c1,1.46,2.85.85,4.05,0,2.84-2,3.47-4.96,3.67-8.27.14,1.21.19,2.33.5,3.48.61,2.24,1.82,4.07,3.87,5.2Z"/>
    <path class="cls-2" d="M83.73,311.99c-2.05-1.12-3.27-2.96-3.87-5.2-.31-1.15-.37-2.27-.5-3.48-.2,3.3-.83,6.27-3.67,8.27-1.21.85-3.05,1.46-4.05,0-.36-.52-.56-1.1-.68-1.72s-.94,0-2.24-.3c-1.49-.35-1.76-1.97-1.52-3.24.32-1.63,1.2-3.05,2.43-4.15.48-.43.95-.81,1.51-1.1l2.4-1.25c-.62.06-1.16.22-1.75.31-2.88.46-6-.1-7.86-2.49-.65-.83-.72-1.87-.09-2.72.85-1.14,1.96-.96,1.63-1.7-.23-.51-.42-1.03-.47-1.59-.08-.98.45-1.81,1.35-2.15,2.04-.78,4.37-.33,6.19.79,1.21.74,2.15,1.63,3.11,2.72-.17-.59-.47-1.04-.72-1.55-.4-.82-.65-1.63-.83-2.53-.29-1.48-.21-2.98.38-4.37.29-.69.66-1.31,1.28-1.74.57-.4,1.31-.43,1.93-.15,1.28.56,1.46,1.47,1.88,1.07.45-.43.91-.8,1.48-1.06.96-.44,1.99-.1,2.61.78.89,1.26,1.24,2.83,1.14,4.4-.07,1.05-.35,2.03-.7,3-.25.7-.7,1.23-.94,2.02,1.78-1.87,3.43-3.27,6.05-3.7,1.06-.17,2.08-.08,3.08.26s1.58,1.26,1.44,2.35c-.16,1.2-.89,1.72-.21,2.07.46.24.89.51,1.24.88,1.09,1.13.58,2.48-.43,3.48-1.89,1.87-4.5,2.33-7.07,1.97-.7-.1-1.33-.31-2.1-.36,1.05.5,2,.94,2.95,1.57,1.69,1.13,2.93,2.77,3.41,4.76.32,1.34.06,3.18-1.55,3.44-1.44.24-2-.35-2.15.27-.14.55-.29,1.06-.57,1.55-.74,1.35-2.33,1.25-3.51.6ZM80.97,301.13c1.13,1.54,2.32,2.89,3.76,4.11-.24-.92-.68-1.69-1.13-2.47-.48-.86-.96-1.66-1.52-2.46.71-.79,1.02-1.75.98-2.8,1.7-.55,3.46-1.29,4.98-2.25-.68-.05-1.28.08-1.92.15-1.17.21-2.29.45-3.47.78-.53-1.05-1.44-1.75-2.57-2.01-.1-1.79-.23-3.55-.71-5.33-.51,1.77-.64,3.5-.73,5.33-1.1.28-2.05.93-2.58,2-1.61-.45-3.18-.77-4.8-.95-.2,0-.36-.07-.58.02,1.54.97,3.24,1.65,5.02,2.28-.08,1.02.24,1.97.94,2.75l-.8,1.27c-.71,1.17-1.4,2.32-1.86,3.63.34-.15.54-.4.8-.64,1.1-1.04,2.04-2.2,3-3.42,1.04.47,2.12.46,3.19,0ZM83.11,292.89s-.02-.04-.04-.04-.04.02-.04.04.02.04.04.04.04-.02.04-.04ZM85.11,299.76s-.02-.04-.04-.04-.04.02-.04.04.02.04.04.04.04-.02.04-.04Z"/>
    <path class="cls-1" d="M80.97,301.13c-1.07.47-2.15.47-3.19,0-.95,1.22-1.89,2.37-3,3.42-.25.24-.46.49-.8.64.46-1.31,1.15-2.46,1.86-3.63l.8-1.27c-.69-.78-1.02-1.73-.94-2.75-1.77-.63-3.47-1.3-5.02-2.28.21-.09.38-.02.58-.02,1.63.18,3.19.5,4.8.95.53-1.07,1.48-1.72,2.58-2,.09-1.82.22-3.56.73-5.33.48,1.78.61,3.54.71,5.33,1.13.26,2.05.96,2.57,2.01,1.18-.34,2.3-.58,3.47-.78.64-.08,1.24-.2,1.92-.15-1.52.95-3.29,1.7-4.98,2.25.04,1.05-.27,2.01-.98,2.8.56.8,1.04,1.61,1.52,2.46.45.79.89,1.55,1.13,2.47-1.44-1.22-2.63-2.57-3.76-4.11ZM81.83,297.98c.08-1.27-.78-2.32-1.9-2.59s-2.34.31-2.84,1.41c-.65,1.42.17,3.03,1.63,3.41s3-.61,3.1-2.23Z"/>
    <circle class="cls-2" cx="83.07" cy="292.89" r=".04"/>
    <circle class="cls-2" cx="85.06" cy="299.76" r=".04"/>
    <path class="cls-2" d="M81.83,297.98c-.1,1.62-1.64,2.61-3.1,2.23s-2.27-1.99-1.63-3.41c.5-1.1,1.68-1.68,2.84-1.41s1.97,1.32,1.9,2.59Z"/>
  </g>
  <g>
    <path class="cls-2" d="M201.28,257.89c1.19.65,2.77.75,3.51-.6.27-.5.43-1,.57-1.55.15-.62.71-.03,2.15-.27,1.61-.27,1.87-2.1,1.55-3.44-.48-1.99-1.72-3.63-3.41-4.76-.94-.63-1.89-1.07-2.95-1.57.77.05,1.39.26,2.1.36,2.57.36,5.18-.1,7.07-1.97,1.01-1,1.52-2.35.43-3.48-.36-.37-.78-.64-1.24-.88-.68-.35.06-.87.21-2.07.14-1.09-.43-2.01-1.44-2.35s-2.02-.43-3.08-.26c-2.62.42-4.27,1.83-6.05,3.7.24-.79.69-1.32.94-2.02.35-.97.63-1.95.7-3,.11-1.57-.25-3.14-1.14-4.4-.62-.88-1.65-1.22-2.61-.78-.57.26-1.03.62-1.48,1.06-.42.41-.6-.5-1.88-1.07-.63-.27-1.37-.25-1.93.15-.61.43-.99,1.06-1.28,1.74-.59,1.39-.67,2.89-.38,4.37.18.9.43,1.71.83,2.53.25.51.55.95.72,1.55-.96-1.09-1.9-1.99-3.11-2.72-1.83-1.11-4.15-1.56-6.19-.79-.9.34-1.43,1.18-1.35,2.15.05.56.24,1.08.47,1.59.33.74-.79.56-1.63,1.7-.63.85-.55,1.89.09,2.72,1.86,2.39,4.98,2.94,7.86,2.49.6-.09,1.13-.26,1.75-.31l-2.4,1.25c-.56.29-1.04.68-1.51,1.1-1.24,1.1-2.11,2.52-2.43,4.15-.25,1.27.02,2.89,1.52,3.24,1.3.3,2.11-.34,2.24.3s.33,1.2.68,1.72c1,1.46,2.85.85,4.05,0,2.84-2,3.47-4.96,3.67-8.27.14,1.21.19,2.33.5,3.48.61,2.24,1.82,4.07,3.87,5.2Z"/>
    <path class="cls-2" d="M201.28,257.89c-2.05-1.12-3.27-2.96-3.87-5.2-.31-1.15-.37-2.27-.5-3.48-.2,3.3-.83,6.27-3.67,8.27-1.21.85-3.05,1.46-4.05,0-.36-.52-.56-1.1-.68-1.72s-.94,0-2.24-.3c-1.49-.35-1.76-1.97-1.52-3.24.32-1.63,1.2-3.05,2.43-4.15.48-.43.95-.81,1.51-1.1l2.4-1.25c-.62.06-1.16.22-1.75.31-2.88.46-6-.1-7.86-2.49-.65-.83-.72-1.87-.09-2.72.85-1.14,1.96-.96,1.63-1.7-.23-.51-.42-1.03-.47-1.59-.08-.98.45-1.81,1.35-2.15,2.04-.78,4.37-.33,6.19.79,1.21.74,2.15,1.63,3.11,2.72-.17-.59-.47-1.04-.72-1.55-.4-.82-.65-1.63-.83-2.53-.29-1.48-.21-2.98.38-4.37.29-.69.66-1.31,1.28-1.74.57-.4,1.31-.43,1.93-.15,1.28.56,1.46,1.47,1.88,1.07.45-.43.91-.8,1.48-1.06.96-.44,1.99-.1,2.61.78.89,1.26,1.24,2.83,1.14,4.4-.07,1.05-.35,2.03-.7,3-.25.7-.7,1.23-.94,2.02,1.78-1.87,3.43-3.27,6.05-3.7,1.06-.17,2.08-.08,3.08.26s1.58,1.26,1.44,2.35c-.16,1.2-.89,1.72-.21,2.07.46.24.89.51,1.24.88,1.09,1.13.58,2.48-.43,3.48-1.89,1.87-4.5,2.33-7.07,1.97-.7-.1-1.33-.31-2.1-.36,1.05.5,2,.94,2.95,1.57,1.69,1.13,2.93,2.77,3.41,4.76.32,1.34.06,3.18-1.55,3.44-1.44.24-2-.35-2.15.27-.14.55-.29,1.06-.57,1.55-.74,1.35-2.33,1.25-3.51.6ZM198.51,247.03c1.13,1.54,2.32,2.89,3.76,4.11-.24-.92-.68-1.69-1.13-2.47-.48-.86-.96-1.66-1.52-2.46.71-.79,1.02-1.75.98-2.8,1.7-.55,3.46-1.29,4.98-2.25-.68-.05-1.28.08-1.92.15-1.17.21-2.29.45-3.47.78-.53-1.05-1.44-1.75-2.57-2.01-.1-1.79-.23-3.55-.71-5.33-.51,1.77-.64,3.5-.73,5.33-1.1.28-2.05.93-2.58,2-1.61-.45-3.18-.77-4.8-.95-.2,0-.36-.07-.58.02,1.54.97,3.24,1.65,5.02,2.28-.08,1.02.24,1.97.94,2.75l-.8,1.27c-.71,1.17-1.4,2.32-1.86,3.63.34-.15.54-.4.8-.64,1.1-1.04,2.04-2.2,3-3.42,1.04.47,2.12.46,3.19,0ZM200.66,238.78s-.02-.04-.04-.04-.04.02-.04.04.02.04.04.04.04-.02.04-.04ZM202.66,245.66s-.02-.04-.04-.04-.04.02-.04.04.02.04.04.04.04-.02.04-.04Z"/>
    <path class="cls-1" d="M198.51,247.03c-1.07.47-2.15.47-3.19,0-.95,1.22-1.89,2.37-3,3.42-.25.24-.46.49-.8.64.46-1.31,1.15-2.46,1.86-3.63l.8-1.27c-.69-.78-1.02-1.73-.94-2.75-1.77-.63-3.47-1.3-5.02-2.28.21-.09.38-.02.58-.02,1.63.18,3.19.5,4.8.95.53-1.07,1.48-1.72,2.58-2,.09-1.82.22-3.56.73-5.33.48,1.78.61,3.54.71,5.33,1.13.26,2.05.96,2.57,2.01,1.18-.34,2.3-.58,3.47-.78.64-.08,1.24-.2,1.92-.15-1.52.95-3.29,1.7-4.98,2.25.04,1.05-.27,2.01-.98,2.8.56.8,1.04,1.61,1.52,2.46.45.79.89,1.55,1.13,2.47-1.44-1.22-2.63-2.57-3.76-4.11ZM199.38,243.87c.08-1.27-.78-2.32-1.9-2.59s-2.34.31-2.84,1.41c-.65,1.42.17,3.03,1.63,3.41s3-.61,3.1-2.23Z"/>
    <circle class="cls-2" cx="200.62" cy="238.78" r=".04"/>
    <circle class="cls-2" cx="202.61" cy="245.66" r=".04"/>
    <path class="cls-2" d="M199.38,243.87c-.1,1.62-1.64,2.61-3.1,2.23s-2.27-1.99-1.63-3.41c.5-1.1,1.68-1.68,2.84-1.41s1.97,1.32,1.9,2.59Z"/>
  </g>
  <g>
    <path class="cls-2" d="M390.2,249.29c1.19.65,2.77.75,3.51-.6.27-.5.43-1,.57-1.55.15-.62.71-.03,2.15-.27,1.61-.27,1.87-2.1,1.55-3.44-.48-1.99-1.72-3.63-3.41-4.76-.94-.63-1.89-1.07-2.95-1.57.77.05,1.39.26,2.1.36,2.57.36,5.18-.1,7.07-1.97,1.01-1,1.52-2.35.43-3.48-.36-.37-.78-.64-1.24-.88-.68-.35.06-.87.21-2.07.14-1.09-.43-2.01-1.44-2.35s-2.02-.43-3.08-.26c-2.62.42-4.27,1.83-6.05,3.7.24-.79.69-1.32.94-2.02.35-.97.63-1.95.7-3,.11-1.57-.25-3.14-1.14-4.4-.62-.88-1.65-1.22-2.61-.78-.57.26-1.03.62-1.48,1.06-.42.41-.6-.5-1.88-1.07-.63-.27-1.37-.25-1.93.15-.61.43-.99,1.06-1.28,1.74-.59,1.39-.67,2.89-.38,4.37.18.9.43,1.71.83,2.53.25.51.55.95.72,1.55-.96-1.09-1.9-1.99-3.11-2.72-1.83-1.11-4.15-1.56-6.19-.79-.9.34-1.43,1.18-1.35,2.15.05.56.24,1.08.47,1.59.33.74-.79.56-1.63,1.7-.63.85-.55,1.89.09,2.72,1.86,2.39,4.98,2.94,7.86,2.49.6-.09,1.13-.26,1.75-.31l-2.4,1.25c-.56.29-1.04.68-1.51,1.1-1.24,1.1-2.11,2.52-2.43,4.15-.25,1.27.02,2.89,1.52,3.24,1.3.3,2.11-.34,2.24.3s.33,1.2.68,1.72c1,1.46,2.85.85,4.05,0,2.84-2,3.47-4.96,3.67-8.27.14,1.21.19,2.33.5,3.48.61,2.24,1.82,4.07,3.87,5.2Z"/>
    <path class="cls-2" d="M390.2,249.29c-2.05-1.12-3.27-2.96-3.87-5.2-.31-1.15-.37-2.27-.5-3.48-.2,3.3-.83,6.27-3.67,8.27-1.21.85-3.05,1.46-4.05,0-.36-.52-.56-1.1-.68-1.72s-.94,0-2.24-.3c-1.49-.35-1.76-1.97-1.52-3.24.32-1.63,1.2-3.05,2.43-4.15.48-.43.95-.81,1.51-1.1l2.4-1.25c-.62.06-1.16.22-1.75.31-2.88.46-6-.1-7.86-2.49-.65-.83-.72-1.87-.09-2.72.85-1.14,1.96-.96,1.63-1.7-.23-.51-.42-1.03-.47-1.59-.08-.98.45-1.81,1.35-2.15,2.04-.78,4.37-.33,6.19.79,1.21.74,2.15,1.63,3.11,2.72-.17-.59-.47-1.04-.72-1.55-.4-.82-.65-1.63-.83-2.53-.29-1.48-.21-2.98.38-4.37.29-.69.66-1.31,1.28-1.74.57-.4,1.31-.43,1.93-.15,1.28.56,1.46,1.47,1.88,1.07.45-.43.91-.8,1.48-1.06.96-.44,1.99-.1,2.61.78.89,1.26,1.24,2.83,1.14,4.4-.07,1.05-.35,2.03-.7,3-.25.7-.7,1.23-.94,2.02,1.78-1.87,3.43-3.27,6.05-3.7,1.06-.17,2.08-.08,3.08.26s1.58,1.26,1.44,2.35c-.16,1.2-.89,1.72-.21,2.07.46.24.89.51,1.24.88,1.09,1.13.58,2.48-.43,3.48-1.89,1.87-4.5,2.33-7.07,1.97-.7-.1-1.33-.31-2.1-.36,1.05.5,2,.94,2.95,1.57,1.69,1.13,2.93,2.77,3.41,4.76.32,1.34.06,3.18-1.55,3.44-1.44.24-2-.35-2.15.27-.14.55-.29,1.06-.57,1.55-.74,1.35-2.33,1.25-3.51.6ZM387.43,238.43c1.13,1.54,2.32,2.89,3.76,4.11-.24-.92-.68-1.69-1.13-2.47-.48-.86-.96-1.66-1.52-2.46.71-.79,1.02-1.75.98-2.8,1.7-.55,3.46-1.29,4.98-2.25-.68-.05-1.28.08-1.92.15-1.17.21-2.29.45-3.47.78-.53-1.05-1.44-1.75-2.57-2.01-.1-1.79-.23-3.55-.71-5.33-.51,1.77-.64,3.5-.73,5.33-1.1.28-2.05.93-2.58,2-1.61-.45-3.18-.77-4.8-.95-.2,0-.36-.07-.58.02,1.54.97,3.24,1.65,5.02,2.28-.08,1.02.24,1.97.94,2.75l-.8,1.27c-.71,1.17-1.4,2.32-1.86,3.63.34-.15.54-.4.8-.64,1.1-1.04,2.04-2.2,3-3.42,1.04.47,2.12.46,3.19,0ZM389.58,230.18s-.02-.04-.04-.04-.04.02-.04.04.02.04.04.04.04-.02.04-.04ZM391.58,237.06s-.02-.04-.04-.04-.04.02-.04.04.02.04.04.04.04-.02.04-.04Z"/>
    <path class="cls-1" d="M387.43,238.43c-1.07.47-2.15.47-3.19,0-.95,1.22-1.89,2.37-3,3.42-.25.24-.46.49-.8.64.46-1.31,1.15-2.46,1.86-3.63l.8-1.27c-.69-.78-1.02-1.73-.94-2.75-1.77-.63-3.47-1.3-5.02-2.28.21-.09.38-.02.58-.02,1.63.18,3.19.5,4.8.95.53-1.07,1.48-1.72,2.58-2,.09-1.82.22-3.56.73-5.33.48,1.78.61,3.54.71,5.33,1.13.26,2.05.96,2.57,2.01,1.18-.34,2.3-.58,3.47-.78.64-.08,1.24-.2,1.92-.15-1.52.95-3.29,1.7-4.98,2.25.04,1.05-.27,2.01-.98,2.8.56.8,1.04,1.61,1.52,2.46.45.79.89,1.55,1.13,2.47-1.44-1.22-2.63-2.57-3.76-4.11ZM388.3,235.27c.08-1.27-.78-2.32-1.9-2.59s-2.34.31-2.84,1.41c-.65,1.42.17,3.03,1.63,3.41s3-.61,3.1-2.23Z"/>
    <circle class="cls-2" cx="389.54" cy="230.18" r=".04"/>
    <circle class="cls-2" cx="391.53" cy="237.06" r=".04"/>
    <path class="cls-2" d="M388.3,235.27c-.1,1.62-1.64,2.61-3.1,2.23s-2.27-1.99-1.63-3.41c.5-1.1,1.68-1.68,2.84-1.41s1.97,1.32,1.9,2.59Z"/>
  </g>
  <g>
    <path class="cls-2" d="M449.4,151.21c1.19.65,2.77.75,3.51-.6.27-.5.43-1,.57-1.55.15-.62.71-.03,2.15-.27,1.61-.27,1.87-2.1,1.55-3.44-.48-1.99-1.72-3.63-3.41-4.76-.94-.63-1.89-1.07-2.95-1.57.77.05,1.39.26,2.1.36,2.57.36,5.18-.1,7.07-1.97,1.01-1,1.52-2.35.43-3.48-.36-.37-.78-.64-1.24-.88-.68-.35.06-.87.21-2.07.14-1.09-.43-2.01-1.44-2.35s-2.02-.43-3.08-.26c-2.62.42-4.27,1.83-6.05,3.7.24-.79.69-1.32.94-2.02.35-.97.63-1.95.7-3,.11-1.57-.25-3.14-1.14-4.4-.62-.88-1.65-1.22-2.61-.78-.57.26-1.03.62-1.48,1.06-.42.41-.6-.5-1.88-1.07-.63-.27-1.37-.25-1.93.15-.61.43-.99,1.06-1.28,1.74-.59,1.39-.67,2.89-.38,4.37.18.9.43,1.71.83,2.53.25.51.55.95.72,1.55-.96-1.09-1.9-1.99-3.11-2.72-1.83-1.11-4.15-1.56-6.19-.79-.9.34-1.43,1.18-1.35,2.15.05.56.24,1.08.47,1.59.33.74-.79.56-1.63,1.7-.63.85-.55,1.89.09,2.72,1.86,2.39,4.98,2.94,7.86,2.49.6-.09,1.13-.26,1.75-.31l-2.4,1.25c-.56.29-1.04.68-1.51,1.1-1.24,1.1-2.11,2.52-2.43,4.15-.25,1.27.02,2.89,1.52,3.24,1.3.3,2.11-.34,2.24.3s.33,1.2.68,1.72c1,1.46,2.85.85,4.05,0,2.84-2,3.47-4.96,3.67-8.27.14,1.21.19,2.33.5,3.48.61,2.24,1.82,4.07,3.87,5.2Z"/>
    <path class="cls-2" d="M449.4,151.21c-2.05-1.12-3.27-2.96-3.87-5.2-.31-1.15-.37-2.27-.5-3.48-.2,3.3-.83,6.27-3.67,8.27-1.21.85-3.05,1.46-4.05,0-.36-.52-.56-1.1-.68-1.72s-.94,0-2.24-.3c-1.49-.35-1.76-1.97-1.52-3.24.32-1.63,1.2-3.05,2.43-4.15.48-.43.95-.81,1.51-1.1l2.4-1.25c-.62.06-1.16.22-1.75.31-2.88.46-6-.1-7.86-2.49-.65-.83-.72-1.87-.09-2.72.85-1.14,1.96-.96,1.63-1.7-.23-.51-.42-1.03-.47-1.59-.08-.98.45-1.81,1.35-2.15,2.04-.78,4.37-.33,6.19.79,1.21.74,2.15,1.63,3.11,2.72-.17-.59-.47-1.04-.72-1.55-.4-.82-.65-1.63-.83-2.53-.29-1.48-.21-2.98.38-4.37.29-.69.66-1.31,1.28-1.74.57-.4,1.31-.43,1.93-.15,1.28.56,1.46,1.47,1.88,1.07.45-.43.91-.8,1.48-1.06.96-.44,1.99-.1,2.61.78.89,1.26,1.24,2.83,1.14,4.4-.07,1.05-.35,2.03-.7,3-.25.7-.7,1.23-.94,2.02,1.78-1.87,3.43-3.27,6.05-3.7,1.06-.17,2.08-.08,3.08.26s1.58,1.26,1.44,2.35c-.16,1.2-.89,1.72-.21,2.07.46.24.89.51,1.24.88,1.09,1.13.58,2.48-.43,3.48-1.89,1.87-4.5,2.33-7.07,1.97-.7-.1-1.33-.31-2.1-.36,1.05.5,2,.94,2.95,1.57,1.69,1.13,2.93,2.77,3.41,4.76.32,1.34.06,3.18-1.55,3.44-1.44.24-2-.35-2.15.27-.14.55-.29,1.06-.57,1.55-.74,1.35-2.33,1.25-3.51.6ZM446.64,140.34c1.13,1.54,2.32,2.89,3.76,4.11-.24-.92-.68-1.69-1.13-2.47-.48-.86-.96-1.66-1.52-2.46.71-.79,1.02-1.75.98-2.8,1.7-.55,3.46-1.29,4.98-2.25-.68-.05-1.28.08-1.92.15-1.17.21-2.29.45-3.47.78-.53-1.05-1.44-1.75-2.57-2.01-.1-1.79-.23-3.55-.71-5.33-.51,1.77-.64,3.5-.73,5.33-1.1.28-2.05.93-2.58,2-1.61-.45-3.18-.77-4.8-.95-.2,0-.36-.07-.58.02,1.54.97,3.24,1.65,5.02,2.28-.08,1.02.24,1.97.94,2.75l-.8,1.27c-.71,1.17-1.4,2.32-1.86,3.63.34-.15.54-.4.8-.64,1.1-1.04,2.04-2.2,3-3.42,1.04.47,2.12.46,3.19,0ZM448.79,132.1s-.02-.04-.04-.04-.04.02-.04.04.02.04.04.04.04-.02.04-.04ZM450.78,138.97s-.02-.04-.04-.04-.04.02-.04.04.02.04.04.04.04-.02.04-.04Z"/>
    <path class="cls-1" d="M446.64,140.34c-1.07.47-2.15.47-3.19,0-.95,1.22-1.89,2.37-3,3.42-.25.24-.46.49-.8.64.46-1.31,1.15-2.46,1.86-3.63l.8-1.27c-.69-.78-1.02-1.73-.94-2.75-1.77-.63-3.47-1.3-5.02-2.28.21-.09.38-.02.58-.02,1.63.18,3.19.5,4.8.95.53-1.07,1.48-1.72,2.58-2,.09-1.82.22-3.56.73-5.33.48,1.78.61,3.54.71,5.33,1.13.26,2.05.96,2.57,2.01,1.18-.34,2.3-.58,3.47-.78.64-.08,1.24-.2,1.92-.15-1.52.95-3.29,1.7-4.98,2.25.04,1.05-.27,2.01-.98,2.8.56.8,1.04,1.61,1.52,2.46.45.79.89,1.55,1.13,2.47-1.44-1.22-2.63-2.57-3.76-4.11ZM447.51,137.19c.08-1.27-.78-2.32-1.9-2.59s-2.34.31-2.84,1.41c-.65,1.42.17,3.03,1.63,3.41s3-.61,3.1-2.23Z"/>
    <circle class="cls-2" cx="448.74" cy="132.1" r=".04"/>
    <circle class="cls-2" cx="450.74" cy="138.97" r=".04"/>
    <path class="cls-2" d="M447.51,137.19c-.1,1.62-1.64,2.61-3.1,2.23s-2.27-1.99-1.63-3.41c.5-1.1,1.68-1.68,2.84-1.41s1.97,1.32,1.9,2.59Z"/>
  </g>
  <g>
    <path class="cls-2" d="M372.14,158.99c1.19.65,2.77.75,3.51-.6.27-.5.43-1,.57-1.55.15-.62.71-.03,2.15-.27,1.61-.27,1.87-2.1,1.55-3.44-.48-1.99-1.72-3.63-3.41-4.76-.94-.63-1.89-1.07-2.95-1.57.77.05,1.39.26,2.1.36,2.57.36,5.18-.1,7.07-1.97,1.01-1,1.52-2.35.43-3.48-.36-.37-.78-.64-1.24-.88-.68-.35.06-.87.21-2.07.14-1.09-.43-2.01-1.44-2.35s-2.02-.43-3.08-.26c-2.62.42-4.27,1.83-6.05,3.7.24-.79.69-1.32.94-2.02.35-.97.63-1.95.7-3,.11-1.57-.25-3.14-1.14-4.4-.62-.88-1.65-1.22-2.61-.78-.57.26-1.03.62-1.48,1.06-.42.41-.6-.5-1.88-1.07-.63-.27-1.37-.25-1.93.15-.61.43-.99,1.06-1.28,1.74-.59,1.39-.67,2.89-.38,4.37.18.9.43,1.71.83,2.53.25.51.55.95.72,1.55-.96-1.09-1.9-1.99-3.11-2.72-1.83-1.11-4.15-1.56-6.19-.79-.9.34-1.43,1.18-1.35,2.15.05.56.24,1.08.47,1.59.33.74-.79.56-1.63,1.7-.63.85-.55,1.89.09,2.72,1.86,2.39,4.98,2.94,7.86,2.49.6-.09,1.13-.26,1.75-.31l-2.4,1.25c-.56.29-1.04.68-1.51,1.1-1.24,1.1-2.11,2.52-2.43,4.15-.25,1.27.02,2.89,1.52,3.24,1.3.3,2.11-.34,2.24.3s.33,1.2.68,1.72c1,1.46,2.85.85,4.05,0,2.84-2,3.47-4.96,3.67-8.27.14,1.21.19,2.33.5,3.48.61,2.24,1.82,4.07,3.87,5.2Z"/>
    <path class="cls-2" d="M372.14,158.99c-2.05-1.12-3.27-2.96-3.87-5.2-.31-1.15-.37-2.27-.5-3.48-.2,3.3-.83,6.27-3.67,8.27-1.21.85-3.05,1.46-4.05,0-.36-.52-.56-1.1-.68-1.72s-.94,0-2.24-.3c-1.49-.35-1.76-1.97-1.52-3.24.32-1.63,1.2-3.05,2.43-4.15.48-.43.95-.81,1.51-1.1l2.4-1.25c-.62.06-1.16.22-1.75.31-2.88.46-6-.1-7.86-2.49-.65-.83-.72-1.87-.09-2.72.85-1.14,1.96-.96,1.63-1.7-.23-.51-.42-1.03-.47-1.59-.08-.98.45-1.81,1.35-2.15,2.04-.78,4.37-.33,6.19.79,1.21.74,2.15,1.63,3.11,2.72-.17-.59-.47-1.04-.72-1.55-.4-.82-.65-1.63-.83-2.53-.29-1.48-.21-2.98.38-4.37.29-.69.66-1.31,1.28-1.74.57-.4,1.31-.43,1.93-.15,1.28.56,1.46,1.47,1.88,1.07.45-.43.91-.8,1.48-1.06.96-.44,1.99-.1,2.61.78.89,1.26,1.24,2.83,1.14,4.4-.07,1.05-.35,2.03-.7,3-.25.7-.7,1.23-.94,2.02,1.78-1.87,3.43-3.27,6.05-3.7,1.06-.17,2.08-.08,3.08.26s1.58,1.26,1.44,2.35c-.16,1.2-.89,1.72-.21,2.07.46.24.89.51,1.24.88,1.09,1.13.58,2.48-.43,3.48-1.89,1.87-4.5,2.33-7.07,1.97-.7-.1-1.33-.31-2.1-.36,1.05.5,2,.94,2.95,1.57,1.69,1.13,2.93,2.77,3.41,4.76.32,1.34.06,3.18-1.55,3.44-1.44.24-2-.35-2.15.27-.14.55-.29,1.06-.57,1.55-.74,1.35-2.33,1.25-3.51.6ZM369.38,148.12c1.13,1.54,2.32,2.89,3.76,4.11-.24-.92-.68-1.69-1.13-2.47-.48-.86-.96-1.66-1.52-2.46.71-.79,1.02-1.75.98-2.8,1.7-.55,3.46-1.29,4.98-2.25-.68-.05-1.28.08-1.92.15-1.17.21-2.29.45-3.47.78-.53-1.05-1.44-1.75-2.57-2.01-.1-1.79-.23-3.55-.71-5.33-.51,1.77-.64,3.5-.73,5.33-1.1.28-2.05.93-2.58,2-1.61-.45-3.18-.77-4.8-.95-.2,0-.36-.07-.58.02,1.54.97,3.24,1.65,5.02,2.28-.08,1.02.24,1.97.94,2.75l-.8,1.27c-.71,1.17-1.4,2.32-1.86,3.63.34-.15.54-.4.8-.64,1.1-1.04,2.04-2.2,3-3.42,1.04.47,2.12.46,3.19,0ZM371.52,139.88s-.02-.04-.04-.04-.04.02-.04.04.02.04.04.04.04-.02.04-.04ZM373.52,146.76s-.02-.04-.04-.04-.04.02-.04.04.02.04.04.04.04-.02.04-.04Z"/>
    <path class="cls-1" d="M369.38,148.12c-1.07.47-2.15.47-3.19,0-.95,1.22-1.89,2.37-3,3.42-.25.24-.46.49-.8.64.46-1.31,1.15-2.46,1.86-3.63l.8-1.27c-.69-.78-1.02-1.73-.94-2.75-1.77-.63-3.47-1.3-5.02-2.28.21-.09.38-.02.58-.02,1.63.18,3.19.5,4.8.95.53-1.07,1.48-1.72,2.58-2,.09-1.82.22-3.56.73-5.33.48,1.78.61,3.54.71,5.33,1.13.26,2.05.96,2.57,2.01,1.18-.34,2.3-.58,3.47-.78.64-.08,1.24-.2,1.92-.15-1.52.95-3.29,1.7-4.98,2.25.04,1.05-.27,2.01-.98,2.8.56.8,1.04,1.61,1.52,2.46.45.79.89,1.55,1.13,2.47-1.44-1.22-2.63-2.57-3.76-4.11ZM370.24,144.97c.08-1.27-.78-2.32-1.9-2.59s-2.34.31-2.84,1.41c-.65,1.42.17,3.03,1.63,3.41s3-.61,3.1-2.23Z"/>
    <circle class="cls-2" cx="371.48" cy="139.88" r=".04"/>
    <circle class="cls-2" cx="373.47" cy="146.76" r=".04"/>
    <path class="cls-2" d="M370.24,144.97c-.1,1.62-1.64,2.61-3.1,2.23s-2.27-1.99-1.63-3.41c.5-1.1,1.68-1.68,2.84-1.41s1.97,1.32,1.9,2.59Z"/>
  </g>
  <g>
    <path class="cls-2" d="M275.1,160.86c1.19.65,2.77.75,3.51-.6.27-.5.43-1,.57-1.55.15-.62.71-.03,2.15-.27,1.61-.27,1.87-2.1,1.55-3.44-.48-1.99-1.72-3.63-3.41-4.76-.94-.63-1.89-1.07-2.95-1.57.77.05,1.39.26,2.1.36,2.57.36,5.18-.1,7.07-1.97,1.01-1,1.52-2.35.43-3.48-.36-.37-.78-.64-1.24-.88-.68-.35.06-.87.21-2.07.14-1.09-.43-2.01-1.44-2.35s-2.02-.43-3.08-.26c-2.62.42-4.27,1.83-6.05,3.7.24-.79.69-1.32.94-2.02.35-.97.63-1.95.7-3,.11-1.57-.25-3.14-1.14-4.4-.62-.88-1.65-1.22-2.61-.78-.57.26-1.03.62-1.48,1.06-.42.41-.6-.5-1.88-1.07-.63-.27-1.37-.25-1.93.15-.61.43-.99,1.06-1.28,1.74-.59,1.39-.67,2.89-.38,4.37.18.9.43,1.71.83,2.53.25.51.55.95.72,1.55-.96-1.09-1.9-1.99-3.11-2.72-1.83-1.11-4.15-1.56-6.19-.79-.9.34-1.43,1.18-1.35,2.15.05.56.24,1.08.47,1.59.33.74-.79.56-1.63,1.7-.63.85-.55,1.89.09,2.72,1.86,2.39,4.98,2.94,7.86,2.49.6-.09,1.13-.26,1.75-.31l-2.4,1.25c-.56.29-1.04.68-1.51,1.1-1.24,1.1-2.11,2.52-2.43,4.15-.25,1.27.02,2.89,1.52,3.24,1.3.3,2.11-.34,2.24.3s.33,1.2.68,1.72c1,1.46,2.85.85,4.05,0,2.84-2,3.47-4.96,3.67-8.27.14,1.21.19,2.33.5,3.48.61,2.24,1.82,4.07,3.87,5.2Z"/>
    <path class="cls-2" d="M275.1,160.86c-2.05-1.12-3.27-2.96-3.87-5.2-.31-1.15-.37-2.27-.5-3.48-.2,3.3-.83,6.27-3.67,8.27-1.21.85-3.05,1.46-4.05,0-.36-.52-.56-1.1-.68-1.72s-.94,0-2.24-.3c-1.49-.35-1.76-1.97-1.52-3.24.32-1.63,1.2-3.05,2.43-4.15.48-.43.95-.81,1.51-1.1l2.4-1.25c-.62.06-1.16.22-1.75.31-2.88.46-6-.1-7.86-2.49-.65-.83-.72-1.87-.09-2.72.85-1.14,1.96-.96,1.63-1.7-.23-.51-.42-1.03-.47-1.59-.08-.98.45-1.81,1.35-2.15,2.04-.78,4.37-.33,6.19.79,1.21.74,2.15,1.63,3.11,2.72-.17-.59-.47-1.04-.72-1.55-.4-.82-.65-1.63-.83-2.53-.29-1.48-.21-2.98.38-4.37.29-.69.66-1.31,1.28-1.74.57-.4,1.31-.43,1.93-.15,1.28.56,1.46,1.47,1.88,1.07.45-.43.91-.8,1.48-1.06.96-.44,1.99-.1,2.61.78.89,1.26,1.24,2.83,1.14,4.4-.07,1.05-.35,2.03-.7,3-.25.7-.7,1.23-.94,2.02,1.78-1.87,3.43-3.27,6.05-3.7,1.06-.17,2.08-.08,3.08.26s1.58,1.26,1.44,2.35c-.16,1.2-.89,1.72-.21,2.07.46.24.89.51,1.24.88,1.09,1.13.58,2.48-.43,3.48-1.89,1.87-4.5,2.33-7.07,1.97-.7-.1-1.33-.31-2.1-.36,1.05.5,2,.94,2.95,1.57,1.69,1.13,2.93,2.77,3.41,4.76.32,1.34.06,3.18-1.55,3.44-1.44.24-2-.35-2.15.27-.14.55-.29,1.06-.57,1.55-.74,1.35-2.33,1.25-3.51.6ZM272.34,149.99c1.13,1.54,2.32,2.89,3.76,4.11-.24-.92-.68-1.69-1.13-2.47-.48-.86-.96-1.66-1.52-2.46.71-.79,1.02-1.75.98-2.8,1.7-.55,3.46-1.29,4.98-2.25-.68-.05-1.28.08-1.92.15-1.17.21-2.29.45-3.47.78-.53-1.05-1.44-1.75-2.57-2.01-.1-1.79-.23-3.55-.71-5.33-.51,1.77-.64,3.5-.73,5.33-1.1.28-2.05.93-2.58,2-1.61-.45-3.18-.77-4.8-.95-.2,0-.36-.07-.58.02,1.54.97,3.24,1.65,5.02,2.28-.08,1.02.24,1.97.94,2.75l-.8,1.27c-.71,1.17-1.4,2.32-1.86,3.63.34-.15.54-.4.8-.64,1.1-1.04,2.04-2.2,3-3.42,1.04.47,2.12.46,3.19,0ZM274.49,141.75s-.02-.04-.04-.04-.04.02-.04.04.02.04.04.04.04-.02.04-.04ZM276.48,148.63s-.02-.04-.04-.04-.04.02-.04.04.02.04.04.04.04-.02.04-.04Z"/>
    <path class="cls-1" d="M272.34,149.99c-1.07.47-2.15.47-3.19,0-.95,1.22-1.89,2.37-3,3.42-.25.24-.46.49-.8.64.46-1.31,1.15-2.46,1.86-3.63l.8-1.27c-.69-.78-1.02-1.73-.94-2.75-1.77-.63-3.47-1.3-5.02-2.28.21-.09.38-.02.58-.02,1.63.18,3.19.5,4.8.95.53-1.07,1.48-1.72,2.58-2,.09-1.82.22-3.56.73-5.33.48,1.78.61,3.54.71,5.33,1.13.26,2.05.96,2.57,2.01,1.18-.34,2.3-.58,3.47-.78.64-.08,1.24-.2,1.92-.15-1.52.95-3.29,1.7-4.98,2.25.04,1.05-.27,2.01-.98,2.8.56.8,1.04,1.61,1.52,2.46.45.79.89,1.55,1.13,2.47-1.44-1.22-2.63-2.57-3.76-4.11ZM273.2,146.84c.08-1.27-.78-2.32-1.9-2.59s-2.34.31-2.84,1.41c-.65,1.42.17,3.03,1.63,3.41s3-.61,3.1-2.23Z"/>
    <circle class="cls-2" cx="274.44" cy="141.75" r=".04"/>
    <circle class="cls-2" cx="276.44" cy="148.63" r=".04"/>
    <path class="cls-2" d="M273.2,146.84c-.1,1.62-1.64,2.61-3.1,2.23s-2.27-1.99-1.63-3.41c.5-1.1,1.68-1.68,2.84-1.41s1.97,1.32,1.9,2.59Z"/>
  </g>
  <g>
    <path class="cls-2" d="M165.37,184.96c1.19.65,2.77.75,3.51-.6.27-.5.43-1,.57-1.55.15-.62.71-.03,2.15-.27,1.61-.27,1.87-2.1,1.55-3.44-.48-1.99-1.72-3.63-3.41-4.76-.94-.63-1.89-1.07-2.95-1.57.77.05,1.39.26,2.1.36,2.57.36,5.18-.1,7.07-1.97,1.01-1,1.52-2.35.43-3.48-.36-.37-.78-.64-1.24-.88-.68-.35.06-.87.21-2.07.14-1.09-.43-2.01-1.44-2.35s-2.02-.43-3.08-.26c-2.62.42-4.27,1.83-6.05,3.7.24-.79.69-1.32.94-2.02.35-.97.63-1.95.7-3,.11-1.57-.25-3.14-1.14-4.4-.62-.88-1.65-1.22-2.61-.78-.57.26-1.03.62-1.48,1.06-.42.41-.6-.5-1.88-1.07-.63-.27-1.37-.25-1.93.15-.61.43-.99,1.06-1.28,1.74-.59,1.39-.67,2.89-.38,4.37.18.9.43,1.71.83,2.53.25.51.55.95.72,1.55-.96-1.09-1.9-1.99-3.11-2.72-1.83-1.11-4.15-1.56-6.19-.79-.9.34-1.43,1.18-1.35,2.15.05.56.24,1.08.47,1.59.33.74-.79.56-1.63,1.7-.63.85-.55,1.89.09,2.72,1.86,2.39,4.98,2.94,7.86,2.49.6-.09,1.13-.26,1.75-.31l-2.4,1.25c-.56.29-1.04.68-1.51,1.1-1.24,1.1-2.11,2.52-2.43,4.15-.25,1.27.02,2.89,1.52,3.24,1.3.3,2.11-.34,2.24.3s.33,1.2.68,1.72c1,1.46,2.85.85,4.05,0,2.84-2,3.47-4.96,3.67-8.27.14,1.21.19,2.33.5,3.48.61,2.24,1.82,4.07,3.87,5.2Z"/>
    <path class="cls-2" d="M165.37,184.96c-2.05-1.12-3.27-2.96-3.87-5.2-.31-1.15-.37-2.27-.5-3.48-.2,3.3-.83,6.27-3.67,8.27-1.21.85-3.05,1.46-4.05,0-.36-.52-.56-1.1-.68-1.72s-.94,0-2.24-.3c-1.49-.35-1.76-1.97-1.52-3.24.32-1.63,1.2-3.05,2.43-4.15.48-.43.95-.81,1.51-1.1l2.4-1.25c-.62.06-1.16.22-1.75.31-2.88.46-6-.1-7.86-2.49-.65-.83-.72-1.87-.09-2.72.85-1.14,1.96-.96,1.63-1.7-.23-.51-.42-1.03-.47-1.59-.08-.98.45-1.81,1.35-2.15,2.04-.78,4.37-.33,6.19.79,1.21.74,2.15,1.63,3.11,2.72-.17-.59-.47-1.04-.72-1.55-.4-.82-.65-1.63-.83-2.53-.29-1.48-.21-2.98.38-4.37.29-.69.66-1.31,1.28-1.74.57-.4,1.31-.43,1.93-.15,1.28.56,1.46,1.47,1.88,1.07.45-.43.91-.8,1.48-1.06.96-.44,1.99-.1,2.61.78.89,1.26,1.24,2.83,1.14,4.4-.07,1.05-.35,2.03-.7,3-.25.7-.7,1.23-.94,2.02,1.78-1.87,3.43-3.27,6.05-3.7,1.06-.17,2.08-.08,3.08.26s1.58,1.26,1.44,2.35c-.16,1.2-.89,1.72-.21,2.07.46.24.89.51,1.24.88,1.09,1.13.58,2.48-.43,3.48-1.89,1.87-4.5,2.33-7.07,1.97-.7-.1-1.33-.31-2.1-.36,1.05.5,2,.94,2.95,1.57,1.69,1.13,2.93,2.77,3.41,4.76.32,1.34.06,3.18-1.55,3.44-1.44.24-2-.35-2.15.27-.14.55-.29,1.06-.57,1.55-.74,1.35-2.33,1.25-3.51.6ZM162.61,174.09c1.13,1.54,2.32,2.89,3.76,4.11-.24-.92-.68-1.69-1.13-2.47-.48-.86-.96-1.66-1.52-2.46.71-.79,1.02-1.75.98-2.8,1.7-.55,3.46-1.29,4.98-2.25-.68-.05-1.28.08-1.92.15-1.17.21-2.29.45-3.47.78-.53-1.05-1.44-1.75-2.57-2.01-.1-1.79-.23-3.55-.71-5.33-.51,1.77-.64,3.5-.73,5.33-1.1.28-2.05.93-2.58,2-1.61-.45-3.18-.77-4.8-.95-.2,0-.36-.07-.58.02,1.54.97,3.24,1.65,5.02,2.28-.08,1.02.24,1.97.94,2.75l-.8,1.27c-.71,1.17-1.4,2.32-1.86,3.63.34-.15.54-.4.8-.64,1.1-1.04,2.04-2.2,3-3.42,1.04.47,2.12.46,3.19,0ZM164.76,165.85s-.02-.04-.04-.04-.04.02-.04.04.02.04.04.04.04-.02.04-.04ZM166.75,172.72s-.02-.04-.04-.04-.04.02-.04.04.02.04.04.04.04-.02.04-.04Z"/>
    <path class="cls-1" d="M162.61,174.09c-1.07.47-2.15.47-3.19,0-.95,1.22-1.89,2.37-3,3.42-.25.24-.46.49-.8.64.46-1.31,1.15-2.46,1.86-3.63l.8-1.27c-.69-.78-1.02-1.73-.94-2.75-1.77-.63-3.47-1.3-5.02-2.28.21-.09.38-.02.58-.02,1.63.18,3.19.5,4.8.95.53-1.07,1.48-1.72,2.58-2,.09-1.82.22-3.56.73-5.33.48,1.78.61,3.54.71,5.33,1.13.26,2.05.96,2.57,2.01,1.18-.34,2.3-.58,3.47-.78.64-.08,1.24-.2,1.92-.15-1.52.95-3.29,1.7-4.98,2.25.04,1.05-.27,2.01-.98,2.8.56.8,1.04,1.61,1.52,2.46.45.79.89,1.55,1.13,2.47-1.44-1.22-2.63-2.57-3.76-4.11ZM163.48,170.94c.08-1.27-.78-2.32-1.9-2.59s-2.34.31-2.84,1.41c-.65,1.42.17,3.03,1.63,3.41s3-.61,3.1-2.23Z"/>
    <circle class="cls-2" cx="164.72" cy="165.85" r=".04"/>
    <circle class="cls-2" cx="166.71" cy="172.72" r=".04"/>
    <path class="cls-2" d="M163.48,170.94c-.1,1.62-1.64,2.61-3.1,2.23s-2.27-1.99-1.63-3.41c.5-1.1,1.68-1.68,2.84-1.41s1.97,1.32,1.9,2.59Z"/>
  </g>
</svg>