<?xml version="1.0" encoding="UTF-8"?>
<svg id="Branches" xmlns="http://www.w3.org/2000/svg" viewBox="0 0 585.92 704.65">
  <defs>
    <style>
      .cls-1 {
        fill: #877b5c;
      }

      .cls-2 {
        fill: #837652;
      }
    </style>
  </defs>
  <path class="cls-2" d="M441.12,113.79c-1.5.84-2.26,2.66-2.96,4.12.1,0,.21,0,.31.01,1.68-.77,3.44-1.6,2.65-4.13Z"/>
  <path class="cls-1" d="M258.65,346.62c-3.03.59-4.22-1.81-6.33-2.87l-36.89-18.42-6.61-3.23c-13.54-6.61-27.35-11.8-40.32-19.63-5.82-3.52-19.31-32.54-23.33-40.72-6.01-12.25-10.34-24.82-17.32-36.73-.9-1.54-.82-2.8-3.06-2.1-.89.28-1.83,1.62-1.22,3.38l8.9,25.59c4.87,13.99,9.88,27.31,13.72,41.81l-30.3-13.44-33.43-14.58-14.51-6.59c-1.38-.63-4.84-.33-4.54,1.78.71,4.93,10.15,7.03,16.29,11.08,3.83-.54,6.82,1.76,8.75,5.03,18.74,12.64,36.21,20.85,55.82,33.48-1.19,2.18-3.79,3.07-6.36,3.91l-60.28,19.73c-1.14.37-1.94,1.1-2.3,1.78-3.73,6.95,17.12.11,19.15-.23l27.29-4.61c7.77-1.31,15.44-3.49,23.27-4.72,2.97-2.41,8.09-2.47,12.47-1.03,2.69-1.9,7.41-1.86,10.22,0l30.63,20.1,13.45,9.55c9.52,6.76,17.63,12.94,24.3,21.79,5.69-6.93,12.52-13.14,15.84-22.43.97-2.9,3.8-4.87,6.69-7.7Z"/>
  <path class="cls-1" d="M500.96,270.32c2.61-.87,5.22-4,8.48-2.83l11.1-8.69c1.04-.82,2.16-1.76,2.09-2.64-.08-.97-.55-4.12-2.08-3.42-8.18,3.8-15.54,7.88-23.32,12.03l-38.5,20.55-23.37,12.71c-.93.5-2.12.73-2.66.46-.61-.3-.81-1.99-.34-3.03,7.02-15.82,13.7-31.23,19.36-47.29.2-.57-1.03-1.75-1.17-2.17-.61-1.91-11.74,15.86-12.94,17.81-8.97,14.53-16.07,29.98-26.42,43.62-4.76,6.27-13.46,8.74-19.77,12.35-4.71,3.01-9.45,4.51-14.23,7l-33.8,17.57c6.02,9.4,14.4,18.08,20.54,27.88,6.09-6.87,13.18-12.88,20.4-17.75l43.53-29.35c2.62-.88,7.68-.08,9.69,1.13l6.5-.51s0-.05,0-.07c.19,0,.39.01.58.02,5.85.29,10.45,2.33,15.86,3.05,18.96,2.53,37.18,6.27,55.69,10.83,1.66.41,4.22-.32,4.45-1.4.45-2.08-.59-3.39-2.52-4.03l-25.1-8.32c-10.91-3.61-21.28-7.49-32.5-10.22-4.01-.98-7.65-2.11-11.63-4.44,6.64-5.24,12.82-10.15,19.78-15.08l31.19-22.1c-.19-1.52-.46-2.91,1.1-3.69Z"/>
  <path class="cls-1" d="M323.96,313.32h7c0,4,0,8,1,12h4c.24,2.13.68,4.19,1.27,6.19-.63-11.69-1.27-23.23.88-34.94,4.66-25.37,14.12-49.08,24.58-72.36,1.49-1.44,12.91-8.94,18.05-9.2,2.57-1.06,4.48-2.78,7.2-3.69.02-.04.04-.09.07-.13,25.8-10.86,52.88-19.44,80.22-25.78,4.83-1.12,9.05-1.56,13.85-4.52-6.32-.63-12.56-.55-18.54.43l-19.08,3.11c-23.29,3.8-45.42,10.42-68.18,16.94.3-3.66,2.2-6.49,4.13-9.64,15.57-25.52,33.39-49.18,53.55-71.29,1.19-1.31,2.8-2.56,4.2-2.54.7-1.47,1.47-3.29,2.96-4.12-.05-.15-.1-.3-.16-.46.06.16.12.32.16.46.15-.08.3-.15.46-.21-.1-.09-.19-.18-.3-.26,1.03-3.38,20.56-16.91,15.17-18.59-5.22-1.13-25.89,17.49-31.95,22.23-10.33,8.08-18.62,17.23-27.94,26.99-3.62-13.43-8.29-25.14-13.06-37.4-3.02-7.76-4.65-15.79-9.51-22.56-9.02-8.88,5.44,27.49,4.5,30-.39.15-.75.33-1.11.49,6.53,8.93,9.36,21.85,8.22,32.38.03-.12.08-.23.11-.35,5.56,4.87-7.97,18.49-12.2,23.32-4.52,5.16-8.17,10.43-11.97,16.07l-10.57,15.67c-1.99-7.48-1.67-15.07-2.65-22.98-1.24-9.97-3.02-19.46-4.97-29.15-1.11-5.51-2.98-26.82-6.56-26.9-1.11-.03-2.23,1.81-2.11,3.29l2.07,26.85c1.02,13.21,1.31,25.76,1.15,39.01-.12,10.08,1.23,19.89-.93,29.8-1.37,6.28-4.96,11.38-7.91,17l-26.82,51.16c10.29,2.7,18.75,11.81,21.71,23.66Z"/>
  <path class="cls-1" d="M259.96,318.32c-1-4,4-5,5-6,9-8,15-20,26-23,.16-.03.33-.05.49-.08-2.53-3.64-4.85-7.44-7.53-11.11-6.1-8.34-11.17-16.82-16.85-25.4l-17.5-26.43c-2.97-4.48-8.53-9.33-9.44-14.72-.25-10.67.9-21.17,2.35-31.88l7.98-58.92c.94-6.93,3.18-13.22,3.83-20.19.84-9.02,2.6-17.51,4.4-26.36,1.22-5.97,2.99-11.97.67-18.42-4.3,7.24-4.54,14.77-6.61,22.04l-2.86,10.03-3.88,14.78-7.24,29.31-8.77,39.31c-1.7,7.64-2.32,14.9-5.18,22.84l-12.07-14.99c-15.73-19.53-17.73-6.33-19.41-52.44l-.87-23.85c-.05-1.4-1.57-2.52-2.6-2.27-.98.23-1.38,1.59-1.48,3.04-1.1,15.48-1.24,30.69-4.35,46.22-10.95-9.11-19.96-18.4-30.88-26.12-6.36-4.5-13.05-7.71-18.12-13.72-1.79-.45-4.25-.08-5.02,1.96l13.82,13.11c7.26,6.89,14.04,13.06,20.07,21.5-.13.09-.25.18-.37.28,1.16,1.08,2.22,2.27,3.28,3.34.04-.05.09-.09.13-.14v-.72c0,.24.02.46.04.68.11-.11.21-.22.32-.34.45.54.89,1.07,1.34,1.6-.02-.36.03-.68.29-.94v1.29c13.77,16.38,26.69,32.58,37.76,50.7l13.76,22.52-50.29-19.89c-2.1-.83-4.45-1.46-6.15,1.02l28.99,17.19c.25.2.45.43.62.68,3.96,2.8,7.31,2.14,10.55,5.35.61.45,1.2.99,1.82,1.7-.12.02-.24.02-.36.04.1.14.19.26.29.4h4c.92.92.99,1.83,1,2.75,8.85,4.19,15.38,10.04,22.38,15.52,2.89,2.26,3.86,5.79,5.26,8.88l10.23,22.57c6.05,13.35,10.71,27.8,10.67,42.56l-.03,13.39c.51-5.98,1.15-12.11.49-18.67Z"/>
  <path class="cls-2" d="M168.67,151.27c.1.12.2.23.29.35v-1.29c-.26.26-.31.58-.29.94Z"/>
  <path class="cls-2" d="M166.96,150.05s.03-.03.04-.05c-.03-.21-.04-.44-.04-.68v.72Z"/>
  <path class="cls-2" d="M163.96,146.32l3,3-3-3Z"/>
  <path class="cls-2" d="M149.96,325.32c2,1,5,1,7,0-2,1-5,1-7,0Z"/>
</svg>