<?xml version="1.0" encoding="UTF-8"?>
<svg id="Fruits" xmlns="http://www.w3.org/2000/svg" viewBox="0 0 585.92 704.65">
  <defs>
    <style>
      .cls-1 {
        fill: #a2683c;
      }

      .cls-2 {
        fill: #c4874a;
      }
    </style>
  </defs>
  <path class="cls-1" d="M271.93,126.62c-1.14,8.95,12.42,1.75,16.08,15.26,2.04,7.52-.73,15.7-7.16,20-5.68,3.81-11.79,2.39-17.73,2.15l-6.83-7.42c-1.53-1.67-2.99-2.94-3.25-4.94-1.11-8.59,2.06-17.49,11.44-19.64,1.3-.3,3.08.15,3.75-1.03.53-.94.18-2.34.24-3.4,1.35-.78,2.41-.94,3.45-.98Z"/>
  <path class="cls-1" d="M439.36,332.54c-5.75-.28-9.49,2.18-12.51,6.89-5.38,8.41-2,20.85,8.11,24.4,3.9,1.37,9.94,1.41,13.87.28,9.34-2.68,13.38-12.86,10.7-21.57-2.08-6.78-7.87-10.58-15.05-10.24-.85-2.14-.62-4.49-.43-6.52l-6.5.51c1.79,1.09,1.85,4.47,1.81,6.25Z"/>
  <path class="cls-1" d="M383.06,218.34c-9.91.65-16.8,9.41-14.98,19.34,1.8,9.85,9.42,15.01,19.3,14.01,4.76-.48,8.84-.92,12.07-4.94,5.27-6.54,6.1-15.32,1.13-22.61-2.68-3.93-7.58-4.41-11.79-6.12-1.56-.63-1.76-4.96-.85-6.69-2.72.91-4.63,2.63-7.2,3.69,1.89-.09,2.93.78,2.31,3.31Z"/>
  <path class="cls-2" d="M205.96,231.32c-.1-.15-.19-.27-.29-.4-1.97.25-3.89.08-6.13-.61-.85-1.27-.77-2.78.6-3.6,1.55.96,2.83,1.54,4.07,2.47-3.25-3.21-6.59-2.55-10.55-5.35,1.17,1.75.71,4.69,1.58,6.57-6.47-.96-12.06,2.66-14.75,8.64-3.73,8.31-.19,19.37,8.8,22.66,4.6,1.69,10.44,1.36,15.3.17,5.28-1.3,8.41-7.11,9.71-11.68,1.58-5.55-.65-10.5-3.51-16.21.06.03.11.06.17.08,0-.92-.08-1.83-1-2.75h-4Z"/>
  <path class="cls-2" d="M500.96,270.32c-1.56.78-1.3,2.17-1.1,3.69l2.28-1.61c2.48,1.37,3.62,4.52,2.99,7.07-17.04.17-14.16,16.77-16.64,19.33,3.67,5.23,7.21,10.61,12.73,13.97l13.02-1.3c3.38-.34,5.76-4.46,8.11-6.83,5.67-5.73,1.62-12.15,4.83-15.27-.23-4.51-3.44-8.11-7.91-9.76-1.55-.57-2.32-2.58-3.86-3l.78,2.38c-.82,1.11-4.63,1.13-5.7-.39-1.69-2.41-2.08-5.55-3.4-8.47-1.45,1.25-3.04,2.22-5.12,2.22,2.08,0,3.67-.96,5.12-2.22-.09-.19-.16-.38-.26-.57l2.62-2.05c-3.26-1.16-5.87,1.97-8.48,2.83Z"/>
  <path class="cls-2" d="M438.47,117.92c.26.04.51.13.75.28,1.22.78,3.98,3.14,2.51,4.45-2.24,1.99-5.47,1.34-7.66,2.97-8.09,6-9.36,18.34-2.46,25.62,1.74,1.84,2.96,3.07,1.71,5.29l19.72.22,10.21-10.95.12-10.12c-1.96-2.78-2.51-7.87-5.98-9.15l-10.11-3.73c-2.8-1.03-2.48-6.46-5.69-9.23-.16.06-.32.13-.46.21.79,2.53-.97,3.36-2.65,4.13Z"/>
  <path class="cls-2" d="M163.54,146.85c-3.09,2.4-3.58,7.02-6.16,9.02-2.89,2.23-7.51,1.5-10.5,4.55-7.5,7.63-7.17,19.94,2.37,26.93,3.87,2.83,11.48,2.71,16.57,1.58,6.71-1.49,10.46-7.82,11.33-13.05,1.12-6.8-1.52-13.53-7.04-17.03-2.66-1.69-5.58-1.32-8.76-2.5,1.49-2.32,3.41-3.99,5.48-6.16-1.06-1.07-2.13-2.26-3.28-3.34Z"/>
  <path class="cls-2" d="M145.04,326.35c1.71-.27,3.42-.5,5.14-.66,1.17-.09,1.81,3.94.83,4.99-9.03.02-15.53,7.85-15.18,16.96.37,9.42,7.21,16.02,16.42,16.18,5.71.1,10.44-.64,14.31-4.46,3.81-3.76,5.64-8.8,4.93-14.69-.95-7.83-7.04-13.31-14.96-13.66-.76-1.11-.66-4.45.75-5.55.07-.05.16-.09.23-.14-4.38-1.44-9.5-1.38-12.47,1.03Z"/>
  <path class="cls-1" d="M79.71,271.97c.84.55,1.62,1.14,2.3,1.78-1.55,2.8-2.77,6.67-5.11,8.4-4.02,1.83-8.06,3.33-11.55,5.62-3.44,8.59-2.16,9.35-4.05,15.98,2.62,10.05,11.27,14.94,21.06,14.77-.11-.89.49-1.87,1.72-2.17l7.08-1.72c8.19-11.67,5.93-7.86,6.19-22.79-3.46-5.62-5.65-10.27-14.08-9.26-.1-2.3,1.52-5.08,3.82-6.06-2.52.39-4.23-1.41-5.13-3.21.9,1.8,2.61,3.59,5.13,3.21.13-.06.26-.13.4-.18.04.02.07.05.11.07.12-.03.24-.06.36-.1-.12.04-.24.07-.36.1.29.2.57.38.86.57-1.93-3.27-4.92-5.57-8.75-5.03Z"/>
  <path class="cls-2" d="M377.38,114.49c-4.74,2.16-7.67,6.03-8.88,11.23l-8.12,1.32c-7.25,1.18-10.23,10.71-9.12,17.96,1.08,6.99,6.46,12.51,14.03,13.6,9.21,1.33,17.53-2.3,20.3-11.73,1.14-10.52-1.69-23.44-8.22-32.38Z"/>
</svg>