<?xml version="1.0" encoding="UTF-8"?>
<svg id="smaller_leaves" data-name="smaller leaves" xmlns="http://www.w3.org/2000/svg" viewBox="0 0 585.92 704.65">
  <defs>
    <style>
      .cls-1 {
        fill: #688886;
      }
    </style>
  </defs>
  <path class="cls-1" d="M518.62,371.43c-8.83-1.44-15.84-7.36-16.78-15.92l-1-9.08c11.82,2.63,20.92,12.53,17.78,25Z"/>
  <path class="cls-1" d="M479.4,366.81c-8.07-3.69-10.62-12.14-6.14-20,7.88,3.66,9.68,12.13,6.14,20Z"/>
  <path class="cls-1" d="M34.91,265.75c-4.22,7.98-16.11,9.11-23.84,4.81-5.64-3.13,5.36-8.78,11.8-9.45,4.05-.43,9.91.91,12.04,4.64Z"/>
  <path class="cls-1" d="M553.95,352.63c-7.01,2.8-15.41.04-17.82-7.82,4.83-2.03,10.69-1.35,14.48,2.51,1.44,1.47,2.09,3.31,3.34,5.31Z"/>
  <path class="cls-1" d="M77.32,247.8c-2.83-1.1-5.04-2.94-6.8-5.3-3.43-4.59-2.18-9.51.03-14.7,7.89,3.54,9.92,11.64,6.77,20Z"/>
  <path class="cls-1" d="M225.62,107.63c-6.39-.45-9.72-3.87-10.11-10,5.65-.02,10.33,3.74,10.11,10Z"/>
  <path class="cls-1" d="M203.96,294.9c-1.4,1.41-2.5,2.87-4.44,3.28-3.79-8.21-1.67-15.34,6.16-20,3.47,6.1,3.23,11.73-1.72,16.72Z"/>
  <path class="cls-1" d="M54.37,350.97c-3.72,2.89-9.24,3.64-13.49,1.65,1.28-2.51,2.51-4.87,4.59-6.39,3.7-2.71,8.81-3.15,13.26-1.63-1.29,2.21-2.29,4.75-4.36,6.36Z"/>
  <path class="cls-1" d="M115.85,366.66c-.54.41-1.21-.17-1.47-.23-.32-.07-1.52-7.6-.52-11.12,1.07-3.77,3.68-6.68,7.26-8.51,3.29,5.14,3.25,11.82-.69,16.57-1.16,1.39-3.06,2.12-4.58,3.29Z"/>
  <path class="cls-1" d="M482.72,213.79c-10.46,1.53-18.5-3.92-20.52-14.52,4.7-.67,8.91.13,12.85,2.06,4.02,2.95,6.4,7.16,7.66,12.46Z"/>
  <path class="cls-1" d="M283.63,209.52c-3.08,8.51-10.75,11.61-19.18,8.66,2.59-8.53,10.71-11.99,19.18-8.66Z"/>
  <path class="cls-1" d="M145.25,147.77c-6.55,6.59-14.23,7.35-21.74,1.73,2.79-2.92,6.33-5.45,10.42-6.1s8.6,1.25,11.32,4.37Z"/>
  <path class="cls-1" d="M58.09,284.65c-4.34,2.84-9.1,3.67-14.02,1.78,4.7-8.75,8.62-9.99,17.75-8.38-.49,3.04-2.82,4.34-3.73,6.6Z"/>
  <path class="cls-1" d="M540.44,202.06c1.14,4.39-.32,7.96-4.4,9.92-.29.14-.63.06-.8-.01-.21-.09-.07-.45-.14-.71-1.01-4.06,1.17-8.02,5.34-9.2Z"/>
  <path class="cls-1" d="M91.45,349.45c.99,9.43-3.51,18.41-14.08,20-1.99-9.4,4.31-18.7,14.08-20Z"/>
  <path class="cls-1" d="M122.45,125.04c-5.55,7.65-14.15,6.64-21.26,2.36-.09-2.03,1.52-2.79,2.94-3.82,5.64-4.11,13.65-3.96,18.32,1.47Z"/>
  <path class="cls-1" d="M45.8,245.25c-6.25.95-9.85-.08-13.26-5.38-.77-1.2-1.08-2.42-2.16-3.65,6.66-2.28,13.91,1.53,15.41,9.03Z"/>
  <path class="cls-1" d="M139.1,223.95c-3.29-3.54-1.09-3.16-4.3-6.91-.35-.41.44-.95.36-1.59-1.16-9.36,7.08-17.45,8.04-16.41,4.19,4.52,4.84,11.75,2.22,17.34-1.4,2.99-3.82,4.98-6.32,7.57Z"/>
  <path class="cls-1" d="M431.17,210.22c9.95.69,15.31,5.07,16.06,14.97-8.8.53-16.09-6.43-16.06-14.97Z"/>
  <path class="cls-1" d="M425.19,261.54c-.53-1.29-1.46-1.8-2.63-2.43-8.05-4.33-8.59-15.63-4.68-22.57,1.66.94,2.36,2.11,3.57,2.91,7.46,4.92,7.98,14.27,3.73,22.09Z"/>
  <path class="cls-1" d="M320.47,135.75c-8.61.43-12.58-.84-16.04-9.27,3.7-1.05,7.42-.92,10.81.88,2.89,1.54,4.37,4.84,5.22,8.38Z"/>
  <path class="cls-1" d="M117.58,99.94c-9.91.39-16.8-5.27-17.67-14.87,8.91-.96,17.85,4.51,17.67,14.87Z"/>
  <path class="cls-1" d="M523.04,313.47c1.4-.14,2.39-1.85,3.37-2.84-1.61,2.9,5.96-3.06,11.37.35-3.45,8.65-8.59,9.87-16.97,8.37-.01-3.71,4.56-5.92,2.24-5.88Z"/>
  <path class="cls-1" d="M144.14,80.34c3.41,7.09,1.74,14.39-2.92,19.87-6.21-8.28-9.51-15.81-1.78-25,1.67,1.73,3.84,3.34,4.7,5.13Z"/>
  <path class="cls-1" d="M428.74,96.79c-9.12-6.17-8.29-17.41-1.7-25,7.38,6.97,9.57,16.75,1.7,25Z"/>
  <path class="cls-1" d="M483.22,113.1c-2.2,2.56-5.88,4.56-8.93,5.5-5.69,1.75-11.58-.38-15.75-4.53,6.06-7.5,14.68-8.95,22.25-3.81.76.52,3.55,1.54,2.43,2.84Z"/>
  <path class="cls-1" d="M221.19,144.4c-9.49.29-14.92-6.11-15.5-14.99,8.93.03,15.4,5.02,15.5,14.99Z"/>
  <path class="cls-1" d="M573.71,268.66c-6.96,5.95-16.59,3.96-21.5-3.69,2.07-1.67,4.43-1.98,6.89-2.55,3.9-.9,7.76.42,11.04,2.57,1.41.93,2.84,1.48,3.57,3.67Z"/>
  <path class="cls-1" d="M292.82,71.83c-4.39,11.76-11.87,15.68-24.06,13.48,2.17-11.48,12.93-16.7,24.06-13.48Z"/>
  <path class="cls-1" d="M520.35,176.01c-4.32,6.93-13.44,8.99-19.28,3.85.68-3.49,5.09-6.12,7.83-6.77,4.29-1.03,8.01.21,11.45,2.92Z"/>
  <path class="cls-1" d="M271.34,119.56c-.44.02-.89.08-1.46.41-1.88-.53-4.73,1.27-6.9-.09.51-4.59,3.41-8.7,7.64-10.54,2.6-1.13,5.41-.86,8.21-.95-2.67,8.64-1.72,5.85-7.5,11.16Z"/>
  <path class="cls-1" d="M552.95,236.36c-1.35,6.06-6.07,8.91-12.28,7.44-.61-2.48,3.29-6.03,4.86-6.71,2.29-1,4.81-1.06,7.42-.72Z"/>
  <path class="cls-1" d="M404.84,116.56c-5.21-4.14-4.87-15.31,1.01-20,5.01,5.84,5.03,14.32-1.01,20Z"/>
  <path class="cls-1" d="M166.41,115.28c-6.13-5.37-5.44-14.4.67-20,5.33,5.57,5.54,14.31-.67,20Z"/>
  <path class="cls-1" d="M329.07,107.11c-8.17-1.62-12.49-8.93-12.15-16.04.05-1.14-.35-3.97,1.26-3.96,9.21,2.87,12.77,10.36,10.89,20Z"/>
  <path class="cls-1" d="M357.81,98.62c3,8.39,1.19,16.35-7.62,20-4.26-8.41-.5-15.91,7.62-20Z"/>
  <path class="cls-1" d="M489.17,152.08c-.46,14.22-9.71,18.55-22.37,20-.64-8.07,3.81-14.53,10.92-18.11,3.41-1.72,7.52-1.34,11.45-1.89Z"/>
  <path class="cls-1" d="M108.31,231.9c6.58,1.95,9.89,7.28,10.66,13.89-10.6,1.65-19.01-3.83-21.47-14.41,3.9-.43,7.29-.52,10.81.52Z"/>
  <path class="cls-1" d="M288.71,39.18c-.31,8.35-6.19,13.72-13.96,12.92.86-8.51,5.89-13.09,13.96-12.92Z"/>
  <path class="cls-1" d="M260.04,35.43c-4.84-5.67-5.9-12.77-3.64-19.57,1.31-3.96-1.27.63,4.35-5.43,7.3,6.66,7.57,18.36-.71,25Z"/>
  <path class="cls-1" d="M510.72,219.9c6.31,9.34,5.17,17.53-2.77,25-3.31-4.06-5.68-8.8-4.73-13.96.82-4.41,3.79-8.35,7.5-11.04Z"/>
  <path class="cls-1" d="M167.57,239.37c-.5,5.03-5.17,9.44-9.98,9.81-1.78-7.57,2.26-12.44,9.62-15,.91,1.61.53,3.44.36,5.19Z"/>
  <path class="cls-1" d="M240.01,79.91c-13.79.11-20.71-5.4-22.57-17.94,13.01-.79,21.01,6.03,22.57,17.94Z"/>
  <path class="cls-1" d="M321.72,170.91c-7.68,2.46-13.43-1.09-16.48-8.24,6.83-2.77,15.11.44,16.48,8.24Z"/>
  <path class="cls-1" d="M489.98,78.37c-2.15,7.79-8.33,10.53-16.45,8.92,2.29-7.81,8.55-11.04,16.45-8.92Z"/>
  <path class="cls-1" d="M456.6,57.43c7.1,8.57-.87,20.38-3.06,19.99-2.49-.44-4.97-9.43-1.47-15.15,1.11-1.81,2.81-3.07,4.52-4.84Z"/>
  <path class="cls-1" d="M243.36,49.97c-2.44.2-4.12-.97-5.9-2.29-4.57-3.4-4.96-6.97-4.23-12.68,2.52,1.06,5.52,1.85,7.27,3.91,3.45,4.07,2.91,5.93,2.86,11.07Z"/>
  <path class="cls-1" d="M483.87,236.94c5.57,10.16,3.57,18.8-6.21,25-5.7-9.42-3.24-18.93,6.21-25Z"/>
  <path class="cls-1" d="M363.57,68.92c-10.77-2.48-15.56-9.62-14.42-20,10.98,2.31,15.99,9.14,14.42,20Z"/>
  <path class="cls-1" d="M115.05,208.05c-4.94-.95-9.32-3.82-11.16-8.3-1.28-3.11-.88-6.45-.18-9.7,5.92,1.48,10.44,6.1,11.69,12.06.02,1.97.23,3.68-.35,5.94Z"/>
  <path class="cls-1" d="M394.99,56.81c2.88,9.31-1.08,17.51-10.1,20-2.17-5.63-.72-11.87,3.26-16,1.84-1.91,4.48-2.77,6.84-4Z"/>
  <path class="cls-1" d="M531.06,284.12c-.1-1.87-1.43-3.36-3.28-4.04-.64-.24-.96-1.07-1.6-1.24s-.94-1.66-.77-2.42c6.65-2.85,14.56.63,16.83,7.73-3.63,1.8-7.74,1.6-11.18-.03Z"/>
  <path class="cls-1" d="M443.7,165.76c-.93,5.05-4.75,9.22-10.18,9.92-.17-3.78.54-7.73,3.21-10l6.97.08Z"/>
  <path class="cls-1" d="M63.43,310.59c1.07,4.11,4.61,6.11,8.62,6.05.59.97,1.27,1.95,1.13,3.3l-5.28.37c-5.53.39-9.88-3.9-11.29-8.98,2.43-1.14,4.67-1.17,6.82-.74Z"/>
  <path class="cls-1" d="M97.99,309c2.92-4.15,2.11-2.8,2.2-8.11,4.22,2.37,4.84,4.7,5.34,9.92-2.27.55-6.8-1.99-7.54-1.81Z"/>
  <path class="cls-1" d="M495.98,310.88c-2.4,2.44-6,2.89-9.88,3.22.24-3.58,1.2-7.42,3.7-10,1.78,2.54,3.5,5.15,6.18,6.78Z"/>
  <path class="cls-1" d="M253.05,151.68c.26,1.99,1.71,3.27,3.25,4.94l6.83,7.42c-4.76-.19-9.62,2.55-14.69-.72.12-4.14.82-9.76,4.62-11.63Z"/>
</svg>