<?xml version="1.0" encoding="UTF-8"?>
<svg id="Roots" xmlns="http://www.w3.org/2000/svg" viewBox="0 0 585.92 704.65">
  <defs>
    <style>
      .cls-1 {
        fill: #7a6a43;
      }

      .cls-2 {
        fill: #837652;
      }
    </style>
  </defs>
  <path class="cls-1" d="M535.61,623.69c-14.03-17.08-30.63-31.63-50.93-40.07-28.15-11.71-62.93-8.75-94.69-18.53-5.82-1.79-11.15-4.49-15.88-7.92-.05.05-.11.1-.17.16-9.49,10.04-21.46,12.92-33.84,13.16.9,2.17,1.92,4.3,3.05,6.37,16.21,9.58,38.63,14.1,57.14,14.61,8.13.23,15.83-.41,24.01.26,15.1,1.25,15.98,22.89,45.38,31.29,6.28,1.79,12.46,3.49,19.07,2.85-24.84-10.62-28.97-13.08-44.61-35.34,23.43-.41,44.92,6.06,64.51,17.51,9.1,5.32,17.13,10.95,26.94,15.66Z"/>
  <path class="cls-1" d="M310.96,568.32c-3.91-.46-7.83-.92-11.76-1.41.59,5.6,1.01,11.2,1.02,16.8,5.96,11.73,12.96,21.31,22.95,29.13.17,3.3,3.79,2.94,5.36,4.31,25.02,21.79,44.86,9.93,49.43,50.46,1.52,13.52,3.26,25.64,9.29,37.04h8.97c-8.59-20.41-2.66-35.64-7.15-58.03,29.32,11.65,49.57,29.96,61.41,58.03h10.74c-5.01-20.62-15.26-38.83-30.38-54.74,25.49-3.79,49.55,2.81,68.93,18.13,2.63,2.08,3.75,4.98,7.08,6.56-4.66-9.93-11.88-18.36-21.01-24.25-30.37-19.6-58.4-10.12-77.54-18.56-13.46-5.94-25.99-12.9-38.54-20.33-11.2-6.63-19.46-15.6-25.07-27.12-1.24-2.54-3.26-4.63-1.73-7.6.07.04.14.08.2.11-1.14-2.06-2.16-4.2-3.05-6.37-9.81.19-19.87-1.28-29.16-2.16Z"/>
  <path class="cls-1" d="M299.2,566.92c-11.64-1.44-23.39-3.1-35.55-5.6-3.54,3.87-7.21,7.53-10.69,11.01,0,1,1,4,1,5-.1.1-.23.18-.34.27.14-.06.27-.12.41-.19-3.83,15.32-13.49,25.18-25.12,33.07-10.35,6.26-20.73,11.76-31.63,17.06-35.61,17.34-25.96,29.55-63.5,36.47-8.13,1.5-27.83,4.92-33.76,9.48-7.32,5.62-15.12,11.11-18.77,20.53,26.74-22.41,38.42-15.11,67.14-22.01-6.18,10.9-10.05,21.59-13.04,32.65h10.46c12.69-29.16,32.13-46.21,62.27-58.09-5.3,21.95,1.63,35.81-7.8,58.09h9.03c4.02-8.08,6.69-16.64,7.82-26.12,1.59-13.3,3.08-32.72,14.94-41.02,4.86-3.4,21.02-9.68,28.31-13.91,3.09,13.4,9.96,25.59,20.58,34.27,5.77,4.72,12.34,7.46,18.38,11.77,11.92,8.49,19.09,21.29,22.53,35.01h2.32c-1.05-12.58-4.13-25.2-12.34-35.43-4.46-5.56-10.45-8.72-15.86-13.19-15.25-9.78-23.21-26.54-21.01-44.34,10.44-8.99,17.67-19.28,23.44-31.62.59,1.24,1.19,2.45,1.8,3.65,0-5.6-.43-11.2-1.02-16.8Z"/>
  <path class="cls-2" d="M249.08,579.63c-.59.21-1.15.44-1.68.71.56-.23,1.12-.47,1.68-.71Z"/>
  <path class="cls-1" d="M252.96,572.32c3.48-3.48,7.15-7.15,10.69-11.01-1.56-.32-3.12-.64-4.69-.99-10.85-1.45-21.7-2.9-30.28-8.88-6.45,6.43-13.7,11.33-22.85,13.93-42.57,12.13-79.59,4.24-114.97,30-11.06,8.05-21.41,16.79-29.6,28.11l39.72-22.32c13.36-7.51,28.72-9.41,44.03-10.33l-10.81,9.33c-5.22,4.51-16.96,28.05-14.51,36.42,4.5-7.59,8.09-14.43,13.38-21.23,10.37-13.31,25.76-23.41,43.11-23.64,28.45-.37,46.14-.87,71.2-11.38.53-.27,1.09-.5,1.68-.71,1.49-.64,3-1.32,4.54-2.03.11-.09.24-.17.34-.27,0-1-1-4-1-5Z"/>
</svg>