<?xml version="1.0" encoding="UTF-8"?>
<svg id="Leaves" xmlns="http://www.w3.org/2000/svg" viewBox="0 0 585.92 704.65">
  <defs>
    <style>
      .cls-1 {
        fill: #688886;
      }
    </style>
  </defs>
  <path class="cls-1" d="M523.86,379.06c-14.22-2.33-25.51-11.86-27.03-25.65l-1.61-14.62c19.04,4.24,33.7,20.19,28.63,40.27Z"/>
  <path class="cls-1" d="M483.59,379.54c-18.33-8.38-24.14-27.58-13.95-45.45,17.9,8.32,22,27.57,13.95,45.45Z"/>
  <path class="cls-1" d="M44.42,264.79c-7.37,13.96-28.16,15.92-41.69,8.42-9.86-5.47,9.37-15.34,20.64-16.53,7.09-.75,17.32,1.58,21.05,8.12Z"/>
  <path class="cls-1" d="M566.5,358.17c-16.9,6.74-37.13.1-42.92-18.84,11.64-4.9,25.76-3.25,34.89,6.04,3.47,3.53,5.04,7.97,8.04,12.79Z"/>
  <path class="cls-1" d="M81.92,260.04c-6.31-2.45-11.21-6.54-15.13-11.8-7.62-10.21-4.85-21.16.06-32.7,17.56,7.88,22.08,25.9,15.07,44.5Z"/>
  <path class="cls-1" d="M237.21,119.1c-21.07-1.47-32.04-12.74-33.3-32.95,18.63-.08,34.04,12.34,33.3,32.95Z"/>
  <path class="cls-1" d="M205.31,303.13c-3.11,3.14-5.56,6.38-9.88,7.31-8.44-18.29-3.72-34.14,13.71-44.53,7.72,13.57,7.19,26.11-3.84,37.22Z"/>
  <path class="cls-1" d="M60.82,354.13c-8.98,6.98-22.27,8.77-32.54,3.99,3.09-6.04,6.06-11.74,11.06-15.41,8.93-6.54,21.26-7.6,31.98-3.92-3.1,5.32-5.51,11.46-10.51,15.35Z"/>
  <path class="cls-1" d="M112.69,378.46c-1.18.91-2.66-.38-3.23-.5-.69-.15-3.34-16.7-1.15-24.44,2.35-8.29,8.08-14.69,15.96-18.7,7.24,11.3,7.15,25.99-1.51,36.41-2.55,3.06-6.73,4.66-10.07,7.22Z"/>
  <path class="cls-1" d="M492.02,220.36c-19.94,2.91-35.28-7.47-39.12-27.68,8.95-1.27,16.99.26,24.5,3.92,7.66,5.62,12.2,13.65,14.61,23.75Z"/>
  <path class="cls-1" d="M295.14,204.42c-6.77,18.72-23.65,25.54-42.18,19.05,5.7-18.75,23.56-26.37,42.18-19.05Z"/>
  <path class="cls-1" d="M157.63,147.21c-14.01,14.09-30.44,15.73-46.51,3.69,5.98-6.24,13.54-11.66,22.29-13.04,9.15-1.45,18.38,2.67,24.22,9.35Z"/>
  <path class="cls-1" d="M65.35,287.76c-10.47,6.85-21.94,8.84-33.8,4.28,11.32-21.1,20.77-24.1,42.79-20.2-1.19,7.33-6.81,10.47-8.99,15.91Z"/>
  <path class="cls-1" d="M548.68,186.24c4.75,18.26-1.33,33.13-18.33,41.32-1.21.58-2.64.24-3.34-.04-.87-.36-.31-1.88-.58-2.95-4.19-16.9,4.86-33.41,22.25-38.32Z"/>
  <path class="cls-1" d="M98.14,340.1c1.91,18.25-6.79,35.62-27.25,38.69-3.84-18.19,8.35-36.18,27.25-38.69Z"/>
  <path class="cls-1" d="M133.98,124.32c-11.57,15.95-29.49,13.84-44.33,4.91-.19-4.22,3.17-5.82,6.13-7.97,11.75-8.56,28.45-8.26,38.2,3.05Z"/>
  <path class="cls-1" d="M58.79,253.15c-16.79,2.55-26.44-.21-35.6-14.44-2.08-3.23-2.89-6.51-5.79-9.81,17.87-6.11,37.34,4.11,41.39,24.25Z"/>
  <path class="cls-1" d="M137.7,233.94c-5.92-6.37-1.96-5.68-7.73-12.43-.62-.73.8-1.72.65-2.86-2.09-16.85,12.73-31.41,14.47-29.53,7.54,8.14,8.72,21.14,3.99,31.2-2.53,5.38-6.88,8.96-11.38,13.63Z"/>
  <path class="cls-1" d="M421.77,201.44c21.59,1.5,33.23,11,34.87,32.5-19.11,1.16-34.92-13.96-34.87-32.5Z"/>
  <path class="cls-1" d="M428.05,271.75c-.96-2.34-2.65-3.28-4.77-4.42-14.63-7.86-15.6-28.4-8.5-41,3.01,1.71,4.28,3.83,6.49,5.29,13.55,8.94,14.5,25.93,6.77,40.13Z"/>
  <path class="cls-1" d="M332.63,143.22c-21.66,1.08-31.65-2.12-40.35-23.32,9.32-2.64,18.68-2.31,27.21,2.23,7.28,3.87,11.01,12.18,13.14,21.09Z"/>
  <path class="cls-1" d="M126.35,107.36c-19.74.78-33.47-10.5-35.21-29.63,17.76-1.91,35.56,8.98,35.21,29.63Z"/>
  <path class="cls-1" d="M514.23,311.46c3.38-.34,5.76-4.46,8.11-6.83-3.87,6.99,14.38-7.38,27.4.83-8.31,20.85-20.7,23.8-40.91,20.16-.03-8.93,11-14.28,5.4-14.16Z"/>
  <path class="cls-1" d="M147.45,73.73c6.47,13.44,3.31,27.3-5.53,37.68-11.78-15.71-18.04-29.98-3.38-47.42,3.17,3.29,7.27,6.34,8.91,9.73Z"/>
  <path class="cls-1" d="M429.48,107.1c-16.64-11.27-15.12-31.77-3.1-45.62,13.47,12.72,17.47,30.56,3.1,45.62Z"/>
  <path class="cls-1" d="M493.16,113c-3.99,4.65-10.66,8.27-16.2,9.98-10.32,3.18-21.01-.69-28.58-8.22,10.99-13.61,26.63-16.23,40.37-6.91,1.39.94,6.44,2.79,4.41,5.16Z"/>
  <path class="cls-1" d="M229.99,152.92c-20.28.63-31.87-13.04-33.1-32.02,19.07.06,32.9,10.71,33.1,32.02Z"/>
  <path class="cls-1" d="M585.92,270.4c-14.87,12.7-35.43,8.46-45.92-7.89,4.41-3.56,9.46-4.23,14.71-5.44,8.33-1.92,16.57.89,23.57,5.5,3.01,1.98,6.06,3.16,7.63,7.83Z"/>
  <path class="cls-1" d="M301.05,67.34c-7.39,19.81-20,26.41-40.53,22.71,3.65-19.34,21.78-28.13,40.53-22.71Z"/>
  <path class="cls-1" d="M532.11,173.91c-9.59,15.39-29.85,19.97-42.81,8.56,1.51-7.76,11.31-13.58,17.39-15.04,9.53-2.29,17.8.47,25.43,6.48Z"/>
  <path class="cls-1" d="M271.93,126.62c-1.04.04-2.1.2-3.45.98-4.46-1.27-11.21,3.01-16.34-.21,1.2-10.86,8.07-20.62,18.1-24.96,6.16-2.67,12.82-2.04,19.46-2.24-6.32,20.46-4.08,13.85-17.77,26.43Z"/>
  <path class="cls-1" d="M566.61,227.91c-4.35,19.47-19.49,28.62-39.45,23.9-1.95-7.98,10.56-19.37,15.61-21.57,7.37-3.21,15.45-3.4,23.84-2.33Z"/>
  <path class="cls-1" d="M404.15,130.4c-12.41-9.87-11.61-36.49,2.41-47.68,11.96,13.91,12,34.13-2.41,47.68Z"/>
  <path class="cls-1" d="M166.15,128.4c-14.17-12.4-12.58-33.28,1.55-46.23,12.32,12.86,12.81,33.08-1.55,46.23Z"/>
  <path class="cls-1" d="M334.9,117.09c-16.32-3.23-24.94-17.83-24.27-32.04.11-2.29-.69-7.93,2.52-7.91,18.4,5.73,25.51,20.69,21.76,39.95Z"/>
  <path class="cls-1" d="M362.48,87.02c6.48,18.13,2.57,35.33-16.46,43.22-9.21-18.17-1.08-34.38,16.46-43.22Z"/>
  <path class="cls-1" d="M495.11,146.78c-.71,21.76-14.86,28.37-34.22,30.6-.97-12.35,5.82-22.23,16.7-27.71,5.21-2.62,11.5-2.05,17.51-2.89Z"/>
  <path class="cls-1" d="M108.36,226.6c11.79,3.5,17.74,13.06,19.13,24.9-19,2.96-34.1-6.88-38.51-25.84,7-.77,13.07-.93,19.38.94Z"/>
  <path class="cls-1" d="M298.54,30.03c-.75,20.12-14.91,33.05-33.62,31.11,2.07-20.51,14.18-31.53,33.62-31.11Z"/>
  <path class="cls-1" d="M259.44,45.87c-8.87-10.41-10.82-23.43-6.68-35.91,2.41-7.26-2.32,1.15,7.97-9.96,13.4,12.22,13.89,33.68-1.29,45.87Z"/>
  <path class="cls-1" d="M512.23,209.54c11.54,17.09,9.46,32.07-5.07,45.72-6.06-7.42-10.4-16.09-8.65-25.54,1.49-8.07,6.93-15.27,13.72-20.19Z"/>
  <path class="cls-1" d="M175.5,235.76c-1.27,12.88-13.24,24.17-25.55,25.11-4.56-19.37,5.8-31.85,24.62-38.4,2.33,4.12,1.37,8.82.93,13.29Z"/>
  <path class="cls-1" d="M246.89,85.4c-22.2.18-33.34-8.69-36.33-28.88,20.95-1.27,33.83,9.71,36.33,28.88Z"/>
  <path class="cls-1" d="M333.85,177.12c-18.98,6.08-33.2-2.7-40.73-20.37,16.87-6.84,37.35,1.1,40.73,20.37Z"/>
  <path class="cls-1" d="M502.14,71.92c-5.32,19.31-20.63,26.09-40.77,22.1,5.66-19.35,21.19-27.37,40.77-22.1Z"/>
  <path class="cls-1" d="M458.71,44.94c15.98,19.27-1.95,45.85-6.88,44.97-5.61-1-11.18-21.22-3.3-34.08,2.5-4.07,6.33-6.9,10.18-10.89Z"/>
  <path class="cls-1" d="M251.28,61.41c-6.18.5-10.43-2.46-14.92-5.81-11.56-8.61-12.54-17.63-10.71-32.09,6.38,2.69,13.97,4.67,18.4,9.9,8.74,10.3,7.36,14.99,7.23,28Z"/>
  <path class="cls-1" d="M486.32,227.05c9.99,18.19,6.39,33.68-11.12,44.78-10.2-16.88-5.8-33.91,11.12-44.78Z"/>
  <path class="cls-1" d="M369.87,77.73c-20.25-4.66-29.26-18.1-27.11-37.62,20.65,4.35,30.07,17.19,27.11,37.62Z"/>
  <path class="cls-1" d="M121.62,218.25c-10.54-2.04-19.89-8.14-23.82-17.71-2.72-6.63-1.88-13.77-.39-20.69,12.64,3.15,22.27,13.01,24.95,25.73.04,4.2.49,7.84-.74,12.67Z"/>
  <path class="cls-1" d="M400.17,46.63c5.81,18.78-2.18,35.32-20.38,40.35-4.38-11.35-1.45-23.95,6.57-32.27,3.71-3.85,9.04-5.58,13.81-8.08Z"/>
  <path class="cls-1" d="M527.18,289.35c-.23-4.51-3.44-8.11-7.91-9.76-1.55-.57-2.32-2.58-3.86-3s-2.27-4.02-1.85-5.84c16.06-6.88,35.15,1.53,40.62,18.67-8.75,4.34-18.68,3.87-26.99-.07Z"/>
  <path class="cls-1" d="M453.04,156.74c-2.64,14.3-13.46,26.1-28.81,28.09-.48-10.69,1.52-21.89,9.09-28.31l19.72.22Z"/>
  <path class="cls-1" d="M61.3,303.74c2.62,10.05,11.27,14.94,21.06,14.77,1.44,2.38,3.1,4.77,2.77,8.07l-12.91.91c-13.51.95-24.15-9.53-27.58-21.93,5.95-2.8,11.4-2.87,16.66-1.81Z"/>
  <path class="cls-1" d="M91.17,314.63c8.19-11.67,5.93-7.86,6.19-22.79,11.86,6.65,13.6,13.19,15,27.86-6.38,1.55-19.1-5.58-21.19-5.08Z"/>
  <path class="cls-1" d="M501.21,312.76c-4.94,5.03-12.36,5.96-20.36,6.63.49-7.37,2.47-15.29,7.62-20.59,3.67,5.23,7.21,10.61,12.73,13.97Z"/>
  <path class="cls-1" d="M253.05,151.68c.26,1.99,1.71,3.27,3.25,4.94l6.83,7.42c-4.76-.19-9.62,2.55-14.69-.72.12-4.14.82-9.76,4.62-11.63Z"/>
</svg>