<?xml version="1.0" encoding="UTF-8"?>
<svg id="Trunk" xmlns="http://www.w3.org/2000/svg" viewBox="0 0 585.92 704.65">
  <defs>
    <style>
      .cls-1 {
        fill: #837652;
      }
    </style>
  </defs>
  <path class="cls-1" d="M337.83,347.28c-.03-5.3-.31-10.54-.59-15.76-.6-2-1.03-4.06-1.27-6.19h-4c-1-4-1-8-1-12h-7c-2.96-11.86-11.42-20.96-21.71-23.66l-4.08,7.79c-2.57-2.52-4.71-5.32-6.72-8.21-.16.03-.33.05-.49.08-11,3-17,15-26,23-1,1-6,2-5,6,.66,6.56.02,12.69-.49,18.67l-.02,9.42c-.28.09-.54.16-.79.21-2.89,2.83-5.73,4.81-6.69,7.7-3.32,9.29-10.15,15.5-15.84,22.43,1.68,2.22,3.26,4.6,4.76,7.21,8.26,14.44,12.84,29.64,12.34,46.31-.57,19.39-2.5,37.94-4.45,57.33-1.41,14.03-3.04,26.99-6.69,40.47-2.32,8.55-5.94,15.61-12.18,22.12-.4.42-.81.84-1.22,1.25,8.58,5.99,19.43,7.44,30.28,8.88,18,4,35,6,52,8,21,2,46,7,63-11,.05-.05.11-.1.17-.16-8.84-6.41-15.55-15.42-19.21-26.23-5.35-15.78-6.64-31.64-7.88-48.33l-4.01-53.91c-.72-9.67,2.09-18.23,4.51-27.45,2.79-10.6,8.81-20.45,16.39-28.99-6.14-9.8-14.51-18.48-20.54-27.88l-5.56,2.89Z"/>
</svg>